<?xml version="1.0" encoding="UTF-8" standalone="no"?>
<!-- Created with Inkscape (http://www.inkscape.org/) -->

<svg
   xmlns:dc="http://purl.org/dc/elements/1.1/"
   xmlns:cc="http://creativecommons.org/ns#"
   xmlns:rdf="http://www.w3.org/1999/02/22-rdf-syntax-ns#"
   xmlns:svg="http://www.w3.org/2000/svg"
   xmlns="http://www.w3.org/2000/svg"
   xmlns:xlink="http://www.w3.org/1999/xlink"
   xmlns:sodipodi="http://sodipodi.sourceforge.net/DTD/sodipodi-0.dtd"
   xmlns:inkscape="http://www.inkscape.org/namespaces/inkscape"
   version="1.1"
   width="100%"
   height="100%"
   viewBox="0 0 135 128"
   id="svg2"
   xml:space="preserve"
   style="fill-rule:evenodd"
   inkscape:version="0.48.5 r10040"
   sodipodi:docname="finalcut.svg"
   preserveAspectRatio="none"><sodipodi:namedview
     pagecolor="#ffffff"
     bordercolor="#666666"
     borderopacity="1"
     objecttolerance="10"
     gridtolerance="10"
     guidetolerance="10"
     inkscape:pageopacity="0"
     inkscape:pageshadow="2"
     inkscape:window-width="1600"
     inkscape:window-height="1116"
     id="namedview28"
     showgrid="false"
     inkscape:zoom="5.0743655"
     inkscape:cx="139.69782"
     inkscape:cy="72.966485"
     inkscape:window-x="0"
     inkscape:window-y="27"
     inkscape:window-maximized="1"
     inkscape:current-layer="svg2" /><metadata
     id="metadata249"><rdf:RDF><cc:Work
         rdf:about=""><dc:format>image/svg+xml</dc:format><dc:type
           rdf:resource="http://purl.org/dc/dcmitype/StillImage" /><dc:title /></cc:Work></rdf:RDF></metadata><defs
     id="defs4"><radialGradient
       cx="103.3"
       cy="92.3405"
       r="3.1045001"
       fx="103.3"
       fy="92.3405"
       id="blue"
       gradientUnits="userSpaceOnUse"><stop
         id="stop5510"
         style="stop-color:#083c99;stop-opacity:1"
         offset="0" /><stop
         id="stop5512"
         style="stop-color:#2f6299;stop-opacity:1"
         offset="1" /></radialGradient><linearGradient
       id="linearGradient3954"><stop
         id="stop3968"
         style="stop-color:#083c99;stop-opacity:1"
         offset="0" /><stop
         id="stop3958"
         style="stop-color:#2f6299;stop-opacity:1"
         offset="1" /></linearGradient><style
       type="text/css"
       id="style6" /><radialGradient
       cx="134.06599"
       cy="79.788696"
       r="40.1213"
       fx="134.06599"
       fy="79.788696"
       id="silver1"
       gradientUnits="userSpaceOnUse"><stop
         id="stop15"
         style="stop-color:#ffffff;stop-opacity:1"
         offset="0" /><stop
         id="stop17"
         style="stop-color:#999999;stop-opacity:1"
         offset="1" /></radialGradient><radialGradient
       cx="119.382"
       cy="64.970802"
       r="39.561298"
       fx="119.382"
       fy="64.970802"
       id="silver2"
       xlink:href="#silver1"
       gradientUnits="userSpaceOnUse" /><radialGradient
       cx="103.3"
       cy="92.3405"
       r="3.1045001"
       fx="103.3"
       fy="92.3405"
       id="silver3"
       gradientUnits="userSpaceOnUse"><stop
         id="stop21"
         style="stop-color:#999999;stop-opacity:1"
         offset="0" /><stop
         id="stop23"
         style="stop-color:#e5e5e5;stop-opacity:1"
         offset="1" /></radialGradient><radialGradient
       cx="134.06599"
       cy="79.788696"
       r="40.1213"
       fx="134.06599"
       fy="79.788696"
       id="radialGradient3226"
       xlink:href="#silver1"
       gradientUnits="userSpaceOnUse" /><linearGradient
       x1="77.73394"
       y1="128.45364"
       x2="115.10606"
       y2="128.45364"
       id="linearGradient5428"
       xlink:href="#linearGradient3954"
       gradientUnits="userSpaceOnUse" /><linearGradient
       x1="40.181316"
       y1="90.812798"
       x2="97.171097"
       y2="90.812798"
       id="linearGradient5506"
       xlink:href="#blue"
       gradientUnits="userSpaceOnUse" /><radialGradient
       inkscape:collect="always"
       xlink:href="#silver1"
       id="radialGradient3013"
       gradientUnits="userSpaceOnUse"
       cx="134.06599"
       cy="79.788696"
       fx="134.06599"
       fy="79.788696"
       r="40.1213" /><radialGradient
       inkscape:collect="always"
       xlink:href="#silver1"
       id="radialGradient3015"
       gradientUnits="userSpaceOnUse"
       cx="119.382"
       cy="64.970802"
       fx="119.382"
       fy="64.970802"
       r="39.561298" /><radialGradient
       inkscape:collect="always"
       xlink:href="#silver3"
       id="radialGradient3017"
       gradientUnits="userSpaceOnUse"
       cx="103.3"
       cy="92.3405"
       fx="103.3"
       fy="92.3405"
       r="3.1045001" /><linearGradient
       inkscape:collect="always"
       xlink:href="#blue"
       id="linearGradient3019"
       gradientUnits="userSpaceOnUse"
       x1="40.181316"
       y1="90.812798"
       x2="97.171097"
       y2="90.812798" /><linearGradient
       inkscape:collect="always"
       xlink:href="#linearGradient3954"
       id="linearGradient3021"
       gradientUnits="userSpaceOnUse"
       x1="77.73394"
       y1="128.45364"
       x2="115.10606"
       y2="128.45364" /><linearGradient
       inkscape:collect="always"
       xlink:href="#linearGradient3954"
       id="linearGradient3792"
       gradientUnits="userSpaceOnUse"
       x1="77.73394"
       y1="128.45364"
       x2="115.10606"
       y2="128.45364"
       gradientTransform="matrix(0.9999964,0,0,1,-39.981171,-27.394473)" /><linearGradient
       inkscape:collect="always"
       xlink:href="#blue"
       id="linearGradient3795"
       gradientUnits="userSpaceOnUse"
       x1="40.181316"
       y1="90.812798"
       x2="97.171097"
       y2="90.812798"
       gradientTransform="matrix(0.9999964,0,0,1,-39.981171,-27.394473)" /></defs><polygon
     points="93.9452,97.038 118.342,97.038 174.188,62.5394 95.5723,89.7399 "
     id="polygon27"
     style="fill:url(#radialGradient3013);stroke:#000000;stroke-width:0.70560127"
     transform="matrix(0.9999964,0,0,1,-39.981171,-27.394473)" /><polygon
     points="96.9965,101.87 100.11,78.8019 141.768,28.0721 104.606,101.878 "
     id="polygon29"
     style="fill:url(#radialGradient3015);stroke:#000000;stroke-width:0.70560127"
     transform="matrix(0.9999964,0,0,1,-39.981171,-27.394473)" /><ellipse
     d="m 106.29025,92.3405 c 0,1.473545 -1.33878,2.66809 -2.99025,2.66809 -1.65147,0 -2.99025,-1.194545 -2.99025,-2.66809 0,-1.473546 1.33878,-2.66809 2.99025,-2.66809 1.65147,0 2.99025,1.194544 2.99025,2.66809 z"
     cx="103.3"
     cy="92.3405"
     rx="2.9902501"
     ry="2.6680901"
     id="ellipse31"
     style="fill:url(#radialGradient3017);stroke:#000000;stroke-width:0.70560127"
     sodipodi:cx="103.3"
     sodipodi:cy="92.3405"
     sodipodi:rx="2.9902501"
     sodipodi:ry="2.6680901"
     transform="matrix(0.9999964,0,0,1,-39.981171,-27.394473)" /><line
     style="fill:none;stroke:#4c4c4c;stroke-width:0.70560002"
     id="line33"
     y2="66.227928"
     x2="65.941444"
     y1="63.461025"
     x1="60.834469"
     class="fil3 str1" /><path
     d="m 41.238437,64.506627 c 1.583494,-3.7593 1.591294,-7.5783 0.0293,-10.9127 -3.627087,-7.7428 -15.768544,-9.6018 -26.687804,-4.2024 -10.9190611,5.3995 -16.6457405,15.9966 -12.8611541,23.7591 7.9326714,16.2694 39.2906581,1.0822 52.2337121,-2.4313 l 2.884289,-14.7432 -15.598343,8.5305 z m -14.566648,7.0191 c 6.957675,-3.4406 10.627362,-10.22 8.195071,-15.1393 -2.432692,-4.9192 -10.047764,-6.1183 -17.005539,-2.6778 -6.957675,3.4406 -10.627562,10.2201 -8.1950707,15.1393 2.4324917,4.9192 10.0476637,6.1184 17.0055387,2.6778 z"
     id="path139"
     style="fill:url(#linearGradient3795);fill-opacity:1;stroke:#000000;stroke-width:0.70560002"
     inkscape:connector-curvature="0" /><path
     d="m 59.194672,88.146527 c 3.994486,-0.8275 7.743772,-0.0976 10.713361,2.0792 6.896176,5.0533 6.375277,17.325803 -1.031496,26.996603 -7.406973,9.6701 -18.910132,13.2424 -25.795507,8.0296 -14.430948,-10.9256 6.526776,-38.760103 12.474055,-50.780803 l 15.022946,0.018 -11.383359,13.6574 z m -9.699765,12.935803 c 4.719283,-6.161803 12.079956,-8.453703 16.436541,-5.116503 4.356784,3.3375 4.062385,11.041103 -0.656898,17.203203 -4.720483,6.1614 -12.080556,8.4532 -16.437241,5.1162 -4.356884,-3.3365 -4.062285,-11.0407 0.657598,-17.2029 z"
     id="path245"
     style="fill:url(#linearGradient3792);fill-opacity:1;stroke:#000000;stroke-width:0.70560002;stroke-opacity:1"
     inkscape:connector-curvature="0" /></svg>