/* XPM */
static char * Unbenannt_xpm[] = {
"28 28 777 2",
"  	c #CF1812",
". 	c #D01915",
"+ 	c #D11E19",
"@ 	c #D42220",
"# 	c #D72A26",
"$ 	c #F44A4A",
"% 	c #FB5755",
"& 	c #FF5F5F",
"* 	c #E64B49",
"= 	c #E24A49",
"- 	c #BD2728",
"; 	c #A40E0D",
"> 	c #9E0A00",
", 	c #B3190F",
"' 	c #C9271C",
") 	c #D62B21",
"! 	c #DF2E24",
"~ 	c #E93527",
"{ 	c #EE3D2B",
"] 	c #EE422A",
"^ 	c #EC4C28",
"/ 	c #E95227",
"( 	c #F0632E",
"_ 	c #FF7C42",
": 	c #FF8D4C",
"< 	c #FF813A",
"[ 	c #DB5810",
"} 	c #B83600",
"| 	c #D6211A",
"1 	c #DC2622",
"2 	c #E4312D",
"3 	c #E83934",
"4 	c #FA4D49",
"5 	c #FF615E",
"6 	c #FF5D59",
"7 	c #F3514E",
"8 	c #C12320",
"9 	c #B21914",
"0 	c #A20A07",
"a 	c #A71007",
"b 	c #BA2310",
"c 	c #C82E16",
"d 	c #D5351F",
"e 	c #DD3623",
"f 	c #E53925",
"g 	c #EE3F2C",
"h 	c #F4462E",
"i 	c #F1492E",
"j 	c #F15330",
"k 	c #FF6F44",
"l 	c #FF8754",
"m 	c #FF7F44",
"n 	c #DF601D",
"o 	c #BF4300",
"p 	c #B53A00",
"q 	c #B93E00",
"r 	c #E6352F",
"s 	c #F3413D",
"t 	c #FF504B",
"u 	c #FF5B55",
"v 	c #FF6D66",
"w 	c #FF564F",
"x 	c #CE2A21",
"y 	c #B7140B",
"z 	c #950000",
"A 	c #A20500",
"B 	c #B3190D",
"C 	c #D53D26",
"D 	c #D43C13",
"E 	c #DC4111",
"F 	c #E24417",
"G 	c #E8441E",
"H 	c #F24B27",
"I 	c #FD5435",
"J 	c #FF5A3A",
"K 	c #FD5A3B",
"L 	c #FF7854",
"M 	c #FF784C",
"N 	c #F06836",
"O 	c #C7460C",
"P 	c #A42A00",
"Q 	c #A32F00",
"R 	c #C65505",
"S 	c #EB7B29",
"T 	c #F24740",
"U 	c #FC514A",
"V 	c #FF5F58",
"W 	c #FF6860",
"X 	c #B91104",
"Y 	c #9D0000",
"Z 	c #B61302",
"` 	c #C1200E",
" .	c #D43520",
"..	c #CE321C",
"+.	c #D83E1C",
"@.	c #E14711",
"#.	c #E44C0D",
"$.	c #E74C13",
"%.	c #ED501B",
"&.	c #F95B2B",
"*.	c #FF693C",
"=.	c #FF6F45",
"-.	c #FA6839",
";.	c #CD4410",
">.	c #A62600",
",.	c #AA3100",
"'.	c #CD5E0D",
").	c #EB8129",
"!.	c #EA8626",
"~.	c #DB7916",
"{.	c #EB4640",
"].	c #CD261D",
"^.	c #B50D02",
"/.	c #A10000",
"(.	c #B80F00",
"_.	c #CA240C",
":.	c #D12C10",
"<.	c #D83315",
"[.	c #E23F1E",
"}.	c #E74421",
"|.	c #E34518",
"1.	c #F0561A",
"2.	c #EC5411",
"3.	c #F05A1B",
"4.	c #FF6E31",
"5.	c #FF8145",
"6.	c #FF7D42",
"7.	c #F26329",
"8.	c #D64A0D",
"9.	c #9D1800",
"0.	c #B63800",
"a.	c #D35C0A",
"b.	c #DE7114",
"c.	c #DD7A12",
"d.	c #E08614",
"e.	c #E79319",
"f.	c #EB9B1E",
"g.	c #C8271F",
"h.	c #BF1C13",
"i.	c #B51105",
"j.	c #AF0A00",
"k.	c #CD2711",
"l.	c #D62E13",
"m.	c #DB3412",
"n.	c #DD3711",
"o.	c #E03A12",
"p.	c #E84316",
"q.	c #ED4B1C",
"r.	c #EE4E1C",
"s.	c #F1581E",
"t.	c #FF7436",
"u.	c #FF8E4F",
"v.	c #F56E2A",
"w.	c #CD4901",
"x.	c #B03000",
"y.	c #A62900",
"z.	c #D75F08",
"A.	c #E16F0E",
"B.	c #E87F12",
"C.	c #E88911",
"D.	c #E69110",
"E.	c #E69A10",
"F.	c #E3A10D",
"G.	c #E1A10B",
"H.	c #A60800",
"I.	c #AD0D00",
"J.	c #BA1905",
"K.	c #C7230A",
"L.	c #D02B0D",
"M.	c #DD3914",
"N.	c #EF491F",
"O.	c #F44F21",
"P.	c #EC4B17",
"Q.	c #EA4913",
"R.	c #F7561F",
"S.	c #FF6831",
"T.	c #FF8758",
"U.	c #FF7C4C",
"V.	c #EA632C",
"W.	c #C54506",
"X.	c #AC3300",
"Y.	c #AA3700",
"Z.	c #BD4F00",
"`.	c #D06500",
" +	c #E07805",
".+	c #E78508",
"++	c #ED9309",
"@+	c #ED9D0A",
"#+	c #EDA80C",
"$+	c #F0B50F",
"%+	c #F2BF14",
"&+	c #EFC113",
"*+	c #B91A05",
"=+	c #C4240E",
"-+	c #D8371B",
";+	c #E84526",
">+	c #E2401A",
",+	c #DE3D13",
"'+	c #E14111",
")+	c #E94915",
"!+	c #ED5118",
"~+	c #F45A1E",
"{+	c #FF7032",
"]+	c #FF884F",
"^+	c #EB5D2D",
"/+	c #D0491A",
"(+	c #B23500",
"_+	c #A83600",
":+	c #B64E00",
"<+	c #CF6D08",
"[+	c #E28412",
"}+	c #E99010",
"|+	c #E99207",
"1+	c #EF9B07",
"2+	c #EFA206",
"3+	c #E8A403",
"4+	c #E6AD06",
"5+	c #ECBE11",
"6+	c #F3CF1F",
"7+	c #F8D927",
"8+	c #D73415",
"9+	c #DC3918",
"0+	c #E5421F",
"a+	c #EC4A23",
"b+	c #EB4D20",
"c+	c #E44818",
"d+	c #EC521E",
"e+	c #FF6B34",
"f+	c #FF7B3F",
"g+	c #FF7132",
"h+	c #EA5C1C",
"i+	c #DA5012",
"j+	c #A72400",
"k+	c #B23700",
"l+	c #C5540E",
"m+	c #D4701A",
"n+	c #DC841A",
"o+	c #DF8F14",
"p+	c #E0940A",
"q+	c #E19702",
"r+	c #EFA609",
"s+	c #F1A907",
"t+	c #F1AD0C",
"u+	c #F1B614",
"v+	c #F6C626",
"w+	c #FBD536",
"x+	c #F5D93A",
"y+	c #EBD436",
"z+	c #E64016",
"A+	c #E74117",
"B+	c #E64318",
"C+	c #E64517",
"D+	c #EE5221",
"E+	c #FB642F",
"F+	c #FF7A44",
"G+	c #FF844A",
"H+	c #FD7237",
"I+	c #D65011",
"J+	c #B53100",
"K+	c #A32300",
"L+	c #C9500B",
"M+	c #D06014",
"N+	c #D8751A",
"O+	c #DA8417",
"P+	c #D68D0C",
"Q+	c #D89705",
"R+	c #E0A405",
"S+	c #EBAE06",
"T+	c #EEB005",
"U+	c #F5B60F",
"V+	c #FEC223",
"W+	c #FFD43C",
"X+	c #FFE050",
"Y+	c #F2D048",
"Z+	c #BEA723",
"`+	c #928000",
" @	c #F24815",
".@	c #F64C1B",
"+@	c #F95522",
"@@	c #FC5C2A",
"#@	c #FF733F",
"$@	c #FF7640",
"%@	c #F56830",
"&@	c #D04911",
"*@	c #AF2E00",
"=@	c #AB2F00",
"-@	c #BE4609",
";@	c #D15F18",
">@	c #E77922",
",@	c #E58018",
"'@	c #E38A14",
")@	c #E1980E",
"!@	c #E1A509",
"~@	c #E4B005",
"{@	c #E9B804",
"]@	c #ECBA03",
"^@	c #FFC917",
"/@	c #FFD029",
"(@	c #FFD139",
"_@	c #F6C23B",
":@	c #CDA42E",
"<@	c #9A7912",
"[@	c #634C00",
"}@	c #3E2C00",
"|@	c #F35017",
"1@	c #FC5B24",
"2@	c #FF6E39",
"3@	c #FF7D4B",
"4@	c #FF713E",
"5@	c #E95D2A",
"6@	c #C13F05",
"7@	c #A72D00",
"8@	c #AF3D00",
"9@	c #CB6010",
"0@	c #DD7820",
"a@	c #DF7D18",
"b@	c #E5880F",
"c@	c #EA940B",
"d@	c #EEA210",
"e@	c #EBA90D",
"f@	c #E8B50A",
"g@	c #F3C517",
"h@	c #FFD126",
"i@	c #EFC221",
"j@	c #F3C733",
"k@	c #DCB532",
"l@	c #A18311",
"m@	c #5F4D00",
"n@	c #3E3600",
"o@	c #444600",
"p@	c #555C18",
"q@	c #FF7F42",
"r@	c #F96C37",
"s@	c #E85E2F",
"t@	c #C23A10",
"u@	c #A82A00",
"v@	c #A93500",
"w@	c #CC6216",
"x@	c #E68622",
"y@	c #E18D11",
"z@	c #DC9000",
"A@	c #E09A00",
"B@	c #E49D00",
"C@	c #ECA800",
"D@	c #EDAB00",
"E@	c #EFAE08",
"F@	c #FFC221",
"G@	c #FFD038",
"H@	c #FFD342",
"I@	c #FFD34F",
"J@	c #DFBB41",
"K@	c #9A8313",
"L@	c #534B00",
"M@	c #363F00",
"N@	c #375100",
"O@	c #37610F",
"P@	c #356A1A",
"Q@	c #346E22",
"R@	c #F27130",
"S@	c #DC5A1C",
"T@	c #AE2D00",
"U@	c #B43900",
"V@	c #C65312",
"W@	c #D86F1E",
"X@	c #DF811D",
"Y@	c #E59114",
"Z@	c #E9A20A",
"`@	c #E6A800",
" #	c #E0A600",
".#	c #F1BA00",
"+#	c #ECB400",
"@#	c #FDC516",
"##	c #FFD332",
"$#	c #FFCC38",
"%#	c #FACA44",
"&#	c #E2B943",
"*#	c #B29327",
"=#	c #695700",
"-#	c #4F4E00",
";#	c #405000",
">#	c #41630D",
",#	c #41731A",
"'#	c #33741A",
")#	c #267116",
"!#	c #237217",
"~#	c #B83C00",
"{#	c #B63B00",
"]#	c #B93F00",
"^#	c #BC4500",
"/#	c #E27113",
"(#	c #EE851A",
"_#	c #ED8D14",
":#	c #DE8800",
"<#	c #DE9000",
"[#	c #EDA803",
"}#	c #F4B707",
"|#	c #ECB301",
"1#	c #EBB709",
"2#	c #FFD028",
"3#	c #F6CA2D",
"4#	c #ECC335",
"5#	c #EAC84A",
"6#	c #B29B29",
"7#	c #605200",
"8#	c #3A3600",
"9#	c #424C00",
"0#	c #3B5100",
"a#	c #3C5E07",
"b#	c #3E6B10",
"c#	c #366D08",
"d#	c #2E6B03",
"e#	c #357807",
"f#	c #438716",
"g#	c #A93400",
"h#	c #BE4A00",
"i#	c #DB6A0E",
"j#	c #EE8215",
"k#	c #E88504",
"l#	c #EB8F00",
"m#	c #EF9C00",
"n#	c #F3A703",
"o#	c #F0AC03",
"p#	c #EEB007",
"q#	c #F1B610",
"r#	c #F5C120",
"s#	c #FFDB44",
"t#	c #F4CF40",
"u#	c #EFD14B",
"v#	c #B9A52A",
"w#	c #564E00",
"x#	c #333800",
"y#	c #455500",
"z#	c #405C08",
"A#	c #406613",
"B#	c #3B6815",
"C#	c #3C6E15",
"D#	c #3E7414",
"E#	c #3E750D",
"F#	c #427B0A",
"G#	c #558C14",
"H#	c #679F24",
"I#	c #D76D15",
"J#	c #DF7716",
"K#	c #E9860F",
"L#	c #EF9207",
"M#	c #E59100",
"N#	c #EA9D00",
"O#	c #F2AC00",
"P#	c #F6B600",
"Q#	c #F4BA0E",
"R#	c #F5BF1E",
"S#	c #FFCC3A",
"T#	c #FFDA56",
"U#	c #E7C44C",
"V#	c #BFA939",
"W#	c #6B6000",
"X#	c #3C3F00",
"Y#	c #4B5F00",
"Z#	c #446709",
"`#	c #2A5C03",
" $	c #326E16",
".$	c #30751C",
"+$	c #297014",
"@$	c #2B6E0F",
"#$	c #397A14",
"$$	c #558D22",
"%$	c #6F9F2F",
"&$	c #85B03C",
"*$	c #92BB43",
"=$	c #EA8C1B",
"-$	c #EB9117",
";$	c #EC960B",
">$	c #E99B00",
",$	c #F7B200",
"'$	c #F8BB00",
")$	c #F3BC00",
"!$	c #EFBE09",
"~$	c #FACD2A",
"{$	c #FFD649",
"]$	c #E9C044",
"^$	c #C09F34",
"/$	c #6E5B00",
"($	c #494500",
"_$	c #485100",
":$	c #486106",
"<$	c #2C5700",
"[$	c #2B6405",
"}$	c #2C7615",
"|$	c #166804",
"1$	c #247A15",
"2$	c #2D821D",
"3$	c #44902C",
"4$	c #62A440",
"5$	c #7CB04C",
"6$	c #80AA46",
"7$	c #759532",
"8$	c #678221",
"9$	c #E49401",
"0$	c #ED9F09",
"a$	c #F3AD0D",
"b$	c #F7B910",
"c$	c #F1BC0C",
"d$	c #F4C716",
"e$	c #F7D126",
"f$	c #F6D538",
"g$	c #EBCF48",
"h$	c #C8AE3D",
"i$	c #887010",
"j$	c #4A3A00",
"k$	c #50530E",
"l$	c #445813",
"m$	c #2D4C00",
"n$	c #285400",
"o$	c #377313",
"p$	c #337C13",
"q$	c #287F0E",
"r$	c #39941F",
"s$	c #2F8A15",
"t$	c #4DA334",
"u$	c #74C159",
"v$	c #89C96B",
"w$	c #80B05C",
"x$	c #5B7D33",
"y$	c #2B4100",
"z$	c #0A1900",
"A$	c #F4B108",
"B$	c #F3B50C",
"C$	c #F3BD15",
"D$	c #F4C51F",
"E$	c #FDD736",
"F$	c #F2D33A",
"G$	c #E7D042",
"H$	c #C9BA39",
"I$	c #887E0F",
"J$	c #464200",
"K$	c #3B3800",
"L$	c #4D550C",
"M$	c #3B5613",
"N$	c #325B17",
"O$	c #3A6B1C",
"P$	c #39741A",
"Q$	c #29700A",
"R$	c #277505",
"S$	c #398E15",
"T$	c #4AA228",
"U$	c #73C851",
"V$	c #79C759",
"W$	c #70B352",
"X$	c #518634",
"Y$	c #285011",
"Z$	c #102A00",
"`$	c #0D1D00",
" %	c #111C00",
".%	c #EBB904",
"+%	c #F4C517",
"@%	c #F7D02B",
"#%	c #F2D33B",
"$%	c #E8D048",
"%%	c #C2B43A",
"&%	c #867F14",
"*%	c #4B4F00",
"=%	c #353F00",
"-%	c #3A4C00",
";%	c #425A06",
">%	c #3B5E0A",
",%	c #3A6E1B",
"'%	c #35731D",
")%	c #327317",
"!%	c #317510",
"~%	c #3E8618",
"{%	c #58A12E",
"]%	c #70B642",
"^%	c #7ABF4B",
"/%	c #79BB4F",
"(%	c #548D2E",
"_%	c #295A09",
":%	c #0A3200",
"<%	c #001C00",
"[%	c #092004",
"}%	c #182919",
"|%	c #152219",
"1%	c #FBD729",
"2%	c #FBDA35",
"3%	c #E5CD35",
"4%	c #CCBB37",
"5%	c #999122",
"6%	c #5A5C00",
"7%	c #2B3700",
"8%	c #314600",
"9%	c #3E5E0B",
"0%	c #3A6009",
"a%	c #336001",
"b%	c #346C07",
"c%	c #2B720A",
"d%	c #28730A",
"e%	c #327B10",
"f%	c #4F9429",
"g%	c #74B64A",
"h%	c #87C55A",
"i%	c #7AB14C",
"j%	c #629435",
"k%	c #2C5803",
"l%	c #153B00",
"m%	c #0B2A00",
"n%	c #0A2500",
"o%	c #072002",
"p%	c #102514",
"q%	c #1D3128",
"r%	c #233332",
"s%	c #EBD740",
"t%	c #C8B729",
"u%	c #928B09",
"v%	c #6A6A00",
"w%	c #232C00",
"x%	c #3E5102",
"y%	c #48641A",
"z%	c #345A0D",
"A%	c #2C5D04",
"B%	c #3D7510",
"C%	c #44850F",
"D%	c #388002",
"E%	c #308101",
"F%	c #48981B",
"G%	c #69B23C",
"H%	c #7DBF51",
"I%	c #7EB452",
"J%	c #68943F",
"K%	c #45671D",
"L%	c #284205",
"M%	c #071B00",
"N%	c #000D00",
"O%	c #081700",
"P%	c #1B2B11",
"Q%	c #1C2F1B",
"R%	c #182D1C",
"S%	c #172E1E",
"T%	c #11291B",
"U%	c #939213",
"V%	c #676800",
"W%	c #3F4800",
"X%	c #2A3B00",
"Y%	c #3C5502",
"Z%	c #36560D",
"`%	c #38621A",
" &	c #3F7223",
".&	c #3F7A1C",
"+&	c #387C0D",
"@&	c #3F8A0B",
"#&	c #4D9A16",
"$&	c #65B232",
"%&	c #76C045",
"&&	c #7FC251",
"*&	c #6BA340",
"=&	c #416C1A",
"-&	c #1B3900",
";&	c #081C00",
">&	c #061200",
",&	c #161F04",
"'&	c #1D220E",
")&	c #282F1F",
"!&	c #242F1F",
"~&	c #142211",
"{&	c #152815",
"]&	c #203822",
"^&	c #233C26",
"/&	c #2E4300",
"(&	c #2E4400",
"_&	c #395400",
":&	c #476912",
"<&	c #4A711E",
"[&	c #376413",
"}&	c #2B5F0C",
"|&	c #326D11",
"1&	c #3D7E18",
"2&	c #468C1C",
"3&	c #539D22",
"4&	c #66AD35",
"5&	c #83C355",
"6&	c #69A13E",
"7&	c #3F7118",
"8&	c #1B4500",
"9&	c #092800",
"0&	c #071D00",
"a&	c #0F1C00",
"b&	c #18200B",
"c&	c #1D2113",
"d&	c #2B2E23",
"e&	c #2F3529",
"f&	c #1D2516",
"g&	c #101D09",
"h&	c #2B3D25",
"i&	c #4D6447",
"j&	c #566F4F",
"k&	c #355C09",
"l&	c #345B0A",
"m&	c #325D0B",
"n&	c #32620E",
"o&	c #255A02",
"p&	c #3F771C",
"q&	c #4C8828",
"r&	c #4B8926",
"s&	c #579A33",
"t&	c #71B44B",
"u&	c #70B349",
"v&	c #5D9939",
"w&	c #406F21",
"x&	c #254C0B",
"y&	c #072800",
"z&	c #001800",
"A&	c #051B00",
"B&	c #142407",
"C&	c #212D17",
"D&	c #2A3223",
"E&	c #1F2519",
"F&	c #1D2317",
"G&	c #222A1B",
"H&	c #2E3928",
"I&	c #4A5841",
"J&	c #6B7B60",
"K&	c #657858",
"L&	c #425535",
"M&	c #356D26",
"N&	c #3B732A",
"O&	c #387122",
"P&	c #2F6B13",
"Q&	c #53912E",
"R&	c #3F7E15",
"S&	c #49891B",
"T&	c #77B64D",
"U&	c #8AC865",
"V&	c #69A54B",
"W&	c #3B7423",
"X&	c #2A581A",
"Y&	c #011C00",
"Z&	c #061802",
"`&	c #0B1D07",
" *	c #15240F",
".*	c #182710",
"+*	c #17260F",
"@*	c #1B2A13",
"#*	c #23321B",
"$*	c #2C3C22",
"%*	c #27371D",
"&*	c #3C4C31",
"**	c #5C6C51",
"=*	c #6A785E",
"-*	c #5F6E51",
";*	c #39482B",
">*	c #0E1B00",
",*	c #22601F",
"'*	c #306F29",
")*	c #3C7C2E",
"!*	c #3F8129",
"~*	c #569930",
"{*	c #71B443",
"]*	c #7EC14E",
"^*	c #69A93B",
"/*	c #417D1D",
"(*	c #1D5401",
"_*	c #003500",
":*	c #001A00",
"<*	c #0D1D10",
"[*	c #121818",
"}*	c #161F1C",
"|*	c #202A22",
"1*	c #1F2D1E",
"2*	c #1B2A17",
"3*	c #1A2E15",
"4*	c #213519",
"5*	c #34492A",
"6*	c #495E3D",
"7*	c #748767",
"8*	c #7C8D6D",
"9*	c #405033",
"0*	c #041100",
"a*	c #000800",
"b*	c #0E1800",
"  . + @ # $ % & * = - ; > , ' ) ! ~ { ] ^ / ( _ : < [ } ",
"| 1 2 3 4 5 6 7 8 9 0 a b c d e f g h i j k l m n o p q ",
"r s t u v w x y z A B C D E F G H I J K L M N O P Q R S ",
"T U V W ) X Y Z `  ...+.@.#.$.%.&.*.k =.-.;.>.,.'.).!.~.",
"u {.].^./.(._.:.<.[.}.|.1.2.3.4.5.6.7.8.9.0.a.b.c.d.e.f.",
"g.h.i.j.k.l.m.n.o.p.q.r.s.t.u.: v.w.x.y.z.A.B.C.D.E.F.G.",
"H.I.J.K.L.M.N.O.P.Q.R.S.T.U.V.W.X.Y.Z.`. +.+++@+#+$+%+&+",
"*+=+-+;+>+,+'+)+!+~+{+]+^+/+(+_+:+<+[+}+|+1+2+3+4+5+6+7+",
"8+9+0+a+b+c+d+e+f+g+h+i+j+k+l+m+n+o+p+q+r+s+t+u+v+w+x+y+",
"z+A+B+C+D+E+F+G+H+I+J+K+L+M+N+O+P+Q+R+S+T+U+V+W+X+Y+Z+`+",
" @.@+@@@#@$@%@&@*@=@-@;@>@,@'@)@!@~@{@]@^@/@(@_@:@<@[@}@",
"|@1@2@3@4@5@6@7@8@9@0@a@b@c@d@e@4+f@g@h@i@j@k@l@m@n@o@p@",
"q@_ r@s@t@u@v@w@x@y@z@A@B@C@D@E@F@G@H@I@J@K@L@M@N@O@P@Q@",
"R@S@6@T@U@V@W@X@Y@Z@`@ #.#+#@###$#%#&#*#=#-#;#>#,#'#)#!#",
"~#{#]#^#/#(#_#:#<#[#}#|#1#2#3#4#5#6#7#8#9#0#a#b#c#d#e#f#",
"g#h#i#j#k#l#m#n#o#p#q#r#s#t#u#v#w#x#y#z#A#B#C#D#E#F#G#H#",
"I#J#K#L#M#N#O#P#Q#R#S#T#U#V#W#X#Y#Z#`# $.$+$@$#$$$%$&$*$",
"=$-$;$>$,$'$)$!$~${$]$^$/$($_$:$<$[$}$|$1$2$3$4$5$6$7$8$",
"9$0$a$b$c$d$e$f$g$h$i$j$k$l$m$n$o$p$q$r$s$t$u$v$w$x$y$z$",
"A$B$C$D$E$F$G$H$I$J$K$L$M$N$O$P$Q$R$S$T$U$V$W$X$Y$Z$`$ %",
".%+%@%#%$%%%&%*%=%-%;%>%,%'%)%!%~%{%]%^%/%(%_%:%<%[%}%|%",
"1%2%3%4%5%6%7%8%9%0%a%b%c%d%e%f%g%h%i%j%k%l%m%n%o%p%q%r%",
"s%t%u%v%w%x%y%z%A%B%C%D%E%F%G%H%I%J%K%L%M%N%O%P%Q%R%S%T%",
"U%V%W%X%Y%Z%`% &.&+&@&#&$&%&&&*&=&-&;&>&,&'&)&!&~&{&]&^&",
"/&(&_&:&<&[&}&|&1&2&3&4&5&6&7&8&9&0&a&b&c&d&e&f&g&h&i&j&",
"k&l&m&n&o&p&q&r&s&t&u&v&w&x&y&z&A&B&C&D&E&F&G&H&I&J&K&L&",
"M&N&O&P&Q&R&S&T&U&V&W&X&Y&Z&`& *.*+*@*#*$*%*&***=*-*;*>*",
",*'*)*!*~*{*]*^*/*(*_*:*<*[*}*|*1*2*3*4*5*6*7*8*9*0*a*b*"};
