/* XPM */
static char *cpu[] = {
/* width height num_colors chars_per_pixel */
"    32    32        9            1",
/* colors */
". c #000000",
"# c #c0c0c0",
"a c none",
"b c #808080",
"c c #595959",
"d c #a0a0a0",
"e c #0000be",
"f c #0000ff",
"g c #ffffff",
/* pixels */
"aaaaaaaaaaaaaaaaaaaaaaa.....aaaa",
"aaaaaaaaaaaaaaaaaaaaa..fffff..aa",
"aaaaaaaaaaaaaaaaaaaa.effgggffe.a",
"aaaaaaaaaaaaaaaaaaa.efffgggfffe.",
"aaaaaaaaaaaaaaaaaaa.fffffffffff.",
"aaaaaaaaaaaaaaaaaaa.ffffgggffff.",
"aaaaaaaaaaaaaaaaaaa.ffffgggffff.",
"aaaaaaaaaaaaaaaaaaa.efffgggfffe.",
"aaaaaaaaaaaaaaaaaaaa.effgggffe.a",
"aaaaaaaaaaaaaaaaaaaaa..fffff..aa",
"aaaaaaaaaaaaaaa..aaaaaa.....aaaa",
"aaaaaaaaaaaaa..dd..aaaaaaaaaaaaa",
"aaaaaaaaaaa..dddddd..aaaaaaaaaaa",
"aaaaaaaaa..dddddd#ddd..aaaaaaaaa",
"aaaaaaa..ddddd#dd##dddd..aaaaaaa",
"aaaaa..dddddd#dd#dddddddd..aaaaa",
"aaa..ddddddd#d#d#ddd#dddddd..aaa",
"a..dddddd##d###dddddd#ddddddd..a",
".bbdddddd#d#dddddd##dddddddddcc.",
".bbbbdddd#dddddddddddddddddcccc.",
".bbbbbbdddddddd##ddddddddcccccc.",
".bbbbbbbbddddd#ddddddddcccccccc.",
"a..bbbbbbbbddddddddddcccccccc..a",
"a.a..bbbbbbbbddddddcccccccc..a.a",
"a.a.a..bbbbbbbbddcccccccc..a.a.a",
"aaa.a.a..bbbbbbbccccccc..a.a.aaa",
"aaaaa.a.a..bbbbbccccc..a.a.aaaaa",
"aaaaaaa.a.a..bbbccc..a.a.aaaaaaa",
"aaaaaaaaa.a.a..bc..a.a.aaaaaaaaa",
"aaaaaaaaaaa.a.a..a.a.aaaaaaaaaaa",
"aaaaaaaaaaaaa.a.aa.aaaaaaaaaaaaa",
"aaaaaaaaaaaaaaa.aaaaaaaaaaaaaaaa"
};
