/* XPM */
static char * xconq [] = {
"32 32 5 1",
" 	s grey90 c grey90    g4 grey90",
".	m black	c black      g4 black",
"X	m white	c SkyBlue    g4 grey80",
"o	m white	c LightGray  g4 grey50",
"O	m white	c OliveDrab  g4 grey40",
"                                ",
"                .               ",
"              ..X..             ",
"            ..XXXXX..           ",
"          ..XXXXXXXXX..         ",
"        ..XXXXXXXXXXXXX..       ",
"      ..XXXXXXXXXXXXXXXXX..     ",
"    ..XXXXXXXXXXXXXXXXXXXXX..   ",
"  ..XXXXXXXXXXXXXXXXX.XXXXXXX.. ",
" .XXXXXXXXXXXXXXXXXXX.XXXXXXXX. ",
" .XXXXXXXXXXXXXXXXX.X.XXXXXXXX. ",
" .XXXXXXXXXXXXXXXXX.X.XXXXXXXX. ",
" .XXXXXXXXXXXXXXXXX.X.XXXXXXXX. ",
" .XXXXXXXXXXXX..........XXXXXX. ",
" .XXXXXXXXXX...oooooooo.XXXXXX. ",
" .X..........ooooooooo..XXXXXX. ",
" .XXXXXXXXXX.................X. ",
" .XXXXXXX...............oooo.X. ",
" .XXXXXX..oooooooooooooooooo.X. ",
" .XXXXXX....................XX. ",
" .XXXXXXX..o.o.o.o.o.o.oo..XXX. ",
" .XXXXXXXX................XXXX. ",
" .............................. ",
" .OOOOOOOOOOOOOOOOOOOOOOOOOOOO. ",
" ..OO.O.O.O.O.O.O.O.O.O.O.O.OO. ",
"   ..O.O.O.O.O.O.O.O.O.O.O.O..  ",
"     ..OO.O.O.O.O.O.O.O.OO..    ",
"       ..O.O.O.O.O.O.O.O..      ",
"         ..OO.O.O.O.OO..        ",
"           ..O.O.O.O..          ",
"             ..OOO..            ",
"               ...              "};
