<svg xmlns="http://www.w3.org/2000/svg" xmlns:svg="http://www.w3.org/2000/svg" id="svg109" width="151mm" height="65.5mm" version="1.1" viewBox="0 0 149.865 65.485"><metadata id="metadata115"/><marker id="a" orient="auto" overflow="visible" refX="0" refY="0"><path id="path2" fill-rule="evenodd" stroke="#000" stroke-width="1pt" d="m0 0 5-5-17.5 5 17.5 5z" transform="matrix(-.4 0 0 -.4 -4 0)"/></marker><marker id="b" orient="auto" overflow="visible" refX="0" refY="0"><path id="path5" fill-rule="evenodd" stroke="#000" stroke-width="1pt" d="m0 0 5-5-17.5 5 17.5 5z" transform="matrix(-.4 0 0 -.4 -4 0)"/></marker><marker id="c" orient="auto" overflow="visible" refX="0" refY="0"><path id="path8" fill-rule="evenodd" stroke="#000" stroke-width="1pt" d="m0 0 5-5-17.5 5 17.5 5z" transform="matrix(-.4 0 0 -.4 -4 0)"/></marker><marker id="d" orient="auto" overflow="visible" refX="0" refY="0"><path id="path11" fill-rule="evenodd" stroke="#000" stroke-width="1pt" d="m0 0 5-5-17.5 5 17.5 5z" transform="matrix(-.4 0 0 -.4 -4 0)"/></marker><marker id="e" orient="auto" overflow="visible" refX="0" refY="0"><path id="path14" fill-rule="evenodd" stroke="#000" stroke-width="1pt" d="m0 0 5-5-17.5 5 17.5 5z" transform="matrix(-.4 0 0 -.4 -4 0)"/></marker><g style="stroke-width:1.20796704" id="g57"><g id="g23" transform="matrix(0.82806766,0,0,0.82760652,18.811674,-210.24741)"><path style="fill:#f9f9f9;stroke:#000;stroke-width:.51105303;stroke-linecap:round;stroke-linejoin:round" id="path17" d="m 7.868146,254.29825 h 57.783382 v 10.66144 H 7.868146 Z"/><text style="font-weight:700;font-size:4.93888903px;font-family:FreeSans,Arial,'Bitstream Vera Sans','DejaVu Sans','Open Sans',sans-serif;letter-spacing:0;word-spacing:0;text-anchor:middle;fill:#1a1a1a;stroke-width:.51097;stroke-opacity:0" id="text21" x="37.113" y="261.552"><tspan style="stroke-width:.51097" id="tspan19" x="37.113" y="261.552">FApplication</tspan></text></g><g id="g31" transform="matrix(0.82806766,0,0,0.82760652,25.151866,-0.203308)"><path style="fill:#f9f9f9;stroke:#000;stroke-width:.51105303;stroke-linecap:round;stroke-linejoin:round" id="path25" d="M 15.875,19.022009 H 42.333334 V 29.683451 H 15.875 Z"/><text style="font-weight:700;font-size:4.93888903px;font-family:FreeSans,Arial,'Bitstream Vera Sans','DejaVu Sans','Open Sans',sans-serif;letter-spacing:0;word-spacing:0;text-anchor:middle;fill:#1a1a1a;stroke-width:.51097;stroke-opacity:0" id="text29" x="29.245" y="26.276"><tspan style="stroke-width:.51097" id="tspan27" x="29.245" y="26.276">FDialog</tspan></text></g><g id="g39" transform="matrix(0.82806766,0,0,0.82760652,38.120716,15.124655)"><path style="fill:#f9f9f9;stroke:#000;stroke-width:.51105303;stroke-linecap:round;stroke-linejoin:round" id="path33" d="M 15.875,19.022009 H 42.333334 V 29.683451 H 15.875 Z"/><text style="font-weight:700;font-size:4.93888903px;font-family:FreeSans,Arial,'Bitstream Vera Sans','DejaVu Sans','Open Sans',sans-serif;letter-spacing:0;word-spacing:0;text-anchor:middle;fill:#1a1a1a;stroke-width:.51097;stroke-opacity:0" id="text37" x="29.245" y="26.276"><tspan style="stroke-width:.51097" id="tspan35" x="29.245" y="26.276">FDialog</tspan></text></g><g id="g47" transform="matrix(0.82806766,0,0,0.82760652,12.006292,15.124655)"><path style="fill:#f9f9f9;stroke:#000;stroke-width:.51105303;stroke-linecap:round;stroke-linejoin:round" id="path41" d="M 15.875,19.022009 H 42.333334 V 29.683451 H 15.875 Z"/><text style="font-weight:700;font-size:4.93888903px;font-family:FreeSans,Arial,'Bitstream Vera Sans','DejaVu Sans','Open Sans',sans-serif;letter-spacing:0;word-spacing:0;text-anchor:middle;fill:#1a1a1a;stroke-width:.51097;stroke-opacity:0" id="text45" x="29.245" y="26.276"><tspan style="stroke-width:.51097" id="tspan43" x="29.245" y="26.276">FLabel</tspan></text></g><g id="g55" transform="matrix(0.82806766,0,0,0.82760652,25.151866,-0.203308)"><path style="fill:#f9f9f9;stroke:#000;stroke-width:.51105303;stroke-linecap:round;stroke-linejoin:round" id="path49" d="M 31.75,56.063679 H 58.208334 V 66.725121 H 31.75 Z"/><text style="font-weight:700;font-size:4.93888903px;font-family:FreeSans,Arial,'Bitstream Vera Sans','DejaVu Sans','Open Sans',sans-serif;letter-spacing:0;word-spacing:0;text-anchor:middle;fill:#1a1a1a;stroke-width:.51097;stroke-opacity:0" id="text53" x="45.12" y="63.318"><tspan style="stroke-width:.51097" id="tspan51" x="45.12" y="63.318">FListBox</tspan></text></g></g><text style="font-style:italic;font-weight:700;font-size:4.08859491px;font-family:FreeSans,Arial,'Bitstream Vera Sans','DejaVu Sans','Open Sans',sans-serif;letter-spacing:0;word-spacing:0;text-anchor:middle;fill:#1a1a1a;stroke-width:.42300001;stroke-opacity:0" id="text61" x="62.288" y="65.409" transform="scale(1.0002786,0.99972148)"><tspan id="tspan59" x="62.288" y="65.409">etc.</tspan></text><path id="path63" fill="none" stroke="#000" stroke-width=".423" marker-end="url(#a)" d="m49.251306 9.2100164v5.7870836"/><path id="path65" fill="none" stroke="#000" stroke-width=".423" marker-end="url(#b)" d="m42.679299 24.537976v5.779196"/><path id="path67" fill="none" stroke="#000" stroke-width=".423" marker-end="url(#c)" d="m55.736511 24.537898v5.779196"/><path id="path69" fill="none" stroke="#000" stroke-width=".423" marker-end="url(#d)" d="m62.369882 39.865938v5.548839"/><path id="path71" fill="none" stroke="#000" stroke-width=".423" marker-end="url(#e)" d="m62.369882 55.193909v5.548839"/><g style="font-size:4.93888903px;font-family:FreeSans,Arial,'Bitstream Vera Sans','DejaVu Sans','Open Sans',sans-serif;letter-spacing:0;word-spacing:0;text-anchor:middle;fill:#1a1a1a;stroke-width:.51097;stroke-opacity:0" id="g89" transform="matrix(0.82806766,0,0,0.82760652,25.151866,-0.203308)"><text id="text75" x="-23.014" y="8.718"><tspan id="tspan73" x="-23.014" y="8.718">Parent:</tspan></text><text id="text79" x="-24.413" y="27.239"><tspan id="tspan77" x="-24.413" y="27.239">Child:</tspan></text><text id="text83" x="-20.598" y="44.797"><tspan id="tspan81" x="-20.598" y="44.797">Subchild:</tspan></text><text id="text87" x="-15.852" y="63.318"><tspan id="tspan85" x="-15.852" y="63.318">Sub-subchild:</tspan></text></g><g style="font-size:4.93888903px;font-family:FreeSans,Arial,'Bitstream Vera Sans','DejaVu Sans','Open Sans',sans-serif;letter-spacing:0;word-spacing:0;text-anchor:middle;fill:#1a1a1a;stroke-width:.51097;stroke-opacity:0" id="g107" transform="matrix(0.82806766,0,0,0.82760652,107.7173,-0.203308)"><text id="text93" x="-5.021" y="8.718"><tspan id="tspan91" x="-5.021" y="8.718">Application widget (= 1)</tspan></text><text id="text97" x="-12.022" y="27.239"><tspan id="tspan95" x="-12.022" y="27.239">Main widget (= 1)</tspan></text><text id="text101" x="5.918" y="44.797"><tspan id="tspan99" x="5.918" y="44.797">Widget(s) of the main widget (≥ 0)</tspan></text><text id="text105" x="10.413" y="63.318"><tspan id="tspan103" x="10.413" y="63.318">Widget(s) from the parent widget (≥ 0)</tspan></text></g></svg>