<?xml version="1.0" encoding="UTF-8"?><svg width="380.67" height="345.34" version="1.1" xmlns="http://www.w3.org/2000/svg"><g transform="translate(62.648 .0014984)"><rect x=".77778" y=".5" width="186.67" height="138.67" ry="9.6756" fill="#f6f8fa" stroke="#000"/><text x="30.242954" y="31.635832" font-family="FreeSans, Arial, 'Bitstream Vera Sans', 'DejaVu Sans', 'Open Sans', sans-serif" font-size="18.667px" font-weight="bold" style="font-variant-caps:normal;font-variant-east-asian:normal;font-variant-ligatures:normal;font-variant-numeric:normal"><tspan x="30.242954" y="31.635832">User interface</tspan></text><text x="217.34639" y="74.700172" font-family="FreeSans, Arial, 'Bitstream Vera Sans', 'DejaVu Sans', 'Open Sans', sans-serif" font-size="18.667px" font-weight="700">Application</text><line x1=".77778" x2="187.44" y1="47.242" y2="47.242" stroke="#000"/><text x="43.319092" y="78.340179" fill="#083c99" font-family="FreeSans, Arial, 'Bitstream Vera Sans', 'DejaVu Sans', 'Open Sans', sans-serif" font-size="18.667px" font-weight="700">FINAL CUT</text><line x1=".77778" x2="187.44" y1="93.984" y2="93.984" stroke="#000"/><text x="54.463108" y="125.04454" font-family="FreeSans, Arial, 'Bitstream Vera Sans', 'DejaVu Sans', 'Open Sans', sans-serif" font-size="18.667px" font-weight="700">Termcap</text></g><line x1="138.09" x2="138.09" y1="139.67" y2="195.66" marker-end="url(#arrowhead-up)" stroke="#000" stroke-linejoin="bevel" stroke-width=".99999"/><g transform="translate(62.648 .0014984)"><rect x=".77778" y="206.17" width="186.67" height="138.67" ry="9.6756" fill="#f6f8fa" stroke="#000"/><text x="18.249615" y="234.02138" font-family="FreeSans, Arial, 'Bitstream Vera Sans', 'DejaVu Sans', 'Open Sans', sans-serif" font-size="18.667px" font-weight="bold" style="font-variant-caps:normal;font-variant-east-asian:normal;font-variant-ligatures:normal;font-variant-numeric:normal"><tspan x="18.249615" y="234.02138">Character parser</tspan></text><line x2="188.22" y1="249.79" y2="249.79" stroke="#000"/><text x="34.209732" y="280.72574" font-family="FreeSans, Arial, 'Bitstream Vera Sans', 'DejaVu Sans', 'Open Sans', sans-serif" font-size="18.667px" font-weight="700">Device driver</text><line x2="188.22" y1="296.53" y2="296.53" stroke="#000"/></g><g transform="translate(62.648 .0014984)" font-family="FreeSans, Arial, 'Bitstream Vera Sans', 'DejaVu Sans', 'Open Sans', sans-serif"><text x="50.337753" y="327.43008" font-size="18.667px" font-weight="700">Hardware</text><text x="216.97285" y="280.72574" font-size="18.667px" font-weight="bold" style="font-variant-caps:normal;font-variant-east-asian:normal;font-variant-ligatures:normal;font-variant-numeric:normal"><tspan x="216.97285" y="280.72574">Terminal</tspan></text><text transform="scale(.9992 1.0008)" x="116.63321" y="167.63315" font-size="13.333px" font-style="italic"><tspan x="116.63321" y="167.63315">Keyboard</tspan><tspan x="116.63321" y="184.29968">input</tspan></text></g><line x1="169.21" x2="169.21" y1="205.96" y2="149.67" marker-end="url(#arrowhead-up)" stroke="#000"/><text x="126.499" y="167.85356" font-family="FreeSans, Arial, 'Bitstream Vera Sans', 'DejaVu Sans', 'Open Sans', sans-serif" font-size="13.333px" font-style="italic" text-anchor="end"><tspan x="126.499" y="167.85356" text-align="end">Character</tspan><tspan transform="translate(15.7)" x="126.499" y="184.52019" text-align="end">output</tspan></text><defs><marker id="arrowhead-up" markerHeight="7" markerWidth="10" orient="auto" preserveAspectRatio="xMidYMid" refY="3.5" viewBox="0 0 10 7"><polygon points="0 7 0 0 10 3.5"/></marker></defs><path d="m255.5 0.0015v3.6833c4.6153 0 6.2392 3.9779 6.2392 12.376v40.368c0 9.2817 1.7948 11.934 5.641 13.407-3.8461 1.4733-5.641 4.1253-5.641 13.407v40.368c0 8.3978-1.6239 12.376-6.2392 12.376v3.6832c5.5555 0 8.7178-4.8618 8.7178-16.059v-40.958c0-7.8084 2.0929-10.306 4.7421-11.001s5.2051 0.16758 5.2238-1.817c0.0186-1.9846-2.5246-1.0792-5.2238-1.817s-4.7421-3.1921-4.7421-11.001v-40.958c0-11.197-3.1624-16.059-8.7178-16.059z" style="font-feature-settings:normal;font-variant-caps:normal;font-variant-ligatures:normal;font-variant-numeric:normal"/><path d="m255.5 205.66v3.6833c4.6153 0 6.2392 3.9779 6.2392 12.376v40.368c0 9.2817 1.7948 11.934 5.641 13.407-3.8461 1.4733-5.641 4.1253-5.641 13.407v40.368c0 8.3978-1.6239 12.376-6.2392 12.376v3.6832c5.5555 0 8.7178-4.8618 8.7178-16.059v-40.958c0-7.8084 2.0929-10.306 4.7421-11.001 2.6493-0.69475 5.2051 0.16759 5.2238-1.817 0.0186-1.9846-2.5246-1.0792-5.2238-1.817-2.6991-0.73783-4.7421-3.1921-4.7421-11.001v-40.958c0-11.197-3.1624-16.059-8.7178-16.059z" style="font-feature-settings:normal;font-variant-caps:normal;font-variant-ligatures:normal;font-variant-numeric:normal"/><g fill="#823e47" font-family="FreeSans, Arial, 'Bitstream Vera Sans', 'DejaVu Sans', 'Open Sans', sans-serif" font-size="18.667px" text-anchor="middle"><text x="29.559217" y="270.54108" text-align="center" style="font-variant-caps:normal;font-variant-east-asian:normal;font-variant-ligatures:normal;font-variant-numeric:normal"><tspan x="29.559217" y="270.54108">System</tspan><tspan x="29.559217" y="293.87482">calls</tspan></text><text x="29.031218" y="179.36841" text-align="center" style="font-variant-caps:normal;font-variant-east-asian:normal;font-variant-ligatures:normal;font-variant-numeric:normal"><tspan x="29.031218" y="179.36841">I/O</tspan></text><text x="29.500547" y="64.759071" text-align="center" style="font-variant-caps:normal;font-variant-east-asian:normal;font-variant-ligatures:normal;font-variant-numeric:normal"><tspan x="29.500547" y="64.759071">API</tspan><tspan x="29.500547" y="88.092819">calls</tspan></text></g></svg>
