<svg xmlns="http://www.w3.org/2000/svg" xmlns:svg="http://www.w3.org/2000/svg" id="svg165" width="881.236" height="539.152" version="1.1" viewBox="-3.483 -3.504 233.16 142.651"><metadata id="metadata171"/><defs id="defs169"><marker id="b-0-367" orient="auto" overflow="visible" refX="0" refY="0" style="overflow:visible"><path id="path5-6-5" d="M 8.7185878,4.0337352 -2.2072895,0.01601326 8.7185884,-4.0017078 c -1.7454984,2.3720609 -1.7354408,5.6174519 -6e-7,8.035443 z" transform="scale(0.6)" style="fill-rule:evenodd;stroke:#000;stroke-width:.625;stroke-linejoin:round"/></marker><marker id="b-0-3" orient="auto" overflow="visible" refX="0" refY="0" style="overflow:visible"><path id="path5-6-6" d="M 8.7185878,4.0337352 -2.2072895,0.01601326 8.7185884,-4.0017078 c -1.7454984,2.3720609 -1.7354408,5.6174519 -6e-7,8.035443 z" transform="scale(0.6)" style="fill-rule:evenodd;stroke:#000;stroke-width:.625;stroke-linejoin:round"/></marker><marker id="b-0-3-5" orient="auto" overflow="visible" refX="0" refY="0" style="overflow:visible"><path id="path5-6-6-3" d="M 8.7185878,4.0337352 -2.2072895,0.01601326 8.7185884,-4.0017078 c -1.7454984,2.3720609 -1.7354408,5.6174519 -6e-7,8.035443 z" transform="scale(0.6)" style="fill-rule:evenodd;stroke:#000;stroke-width:.625;stroke-linejoin:round"/></marker><marker id="b-0-36" orient="auto" overflow="visible" refX="0" refY="0" style="overflow:visible"><path id="path5-6-7" d="M 8.7185878,4.0337352 -2.2072895,0.01601326 8.7185884,-4.0017078 c -1.7454984,2.3720609 -1.7354408,5.6174519 -6e-7,8.035443 z" transform="scale(0.6)" style="fill-rule:evenodd;stroke:#000;stroke-width:.625;stroke-linejoin:round"/></marker></defs><g id="Terminal"><rect id="background" width="229.552" height="139.043" x="-1.679" y="-1.7" style="opacity:1;fill:#98b5ef;fill-opacity:1;stroke:none;stroke-width:.26458332;stroke-linecap:round;stroke-linejoin:round;stroke-miterlimit:1.5;stroke-dasharray:none;stroke-dashoffset:0;stroke-opacity:1;paint-order:normal"/><path id="dialog-shadow" style="opacity:1;fill:#333;fill-opacity:1;stroke:none;stroke-width:.40613544;stroke-linecap:round;stroke-linejoin:round;stroke-miterlimit:4;stroke-dasharray:none;stroke-dashoffset:0;stroke-opacity:1;paint-order:normal" d="m 73.582026,96.010501 h 84.672244 v 5.637389 H 73.582028 Z M 158.25427,33.999698 h 5.64481 V 101.6479 l -5.64481,-1e-5 z"/><rect style="opacity:1;fill:#4d4dc0;fill-opacity:1;stroke:none;stroke-width:.26458329;stroke-linecap:round;stroke-linejoin:round;stroke-miterlimit:1.5;stroke-dasharray:none;stroke-dashoffset:0;stroke-opacity:1;paint-order:normal" id="titlebar" width="81.85" height="5.637" x="76.404" y="28.362" ry="0"/><g id="title-bar-text" aria-label="Dialog" transform="translate(71.692613,37.697864)" style="font-style:normal;font-variant:normal;font-weight:400;font-stretch:normal;font-size:4.93888855px;line-height:125%;font-family:'Bitstream Vera Sans Mono';-inkscape-font-specification:'Bitstream Vera Sans Mono, Normal';font-variant-ligatures:normal;font-variant-caps:normal;font-variant-numeric:normal;font-feature-settings:normal;text-align:start;letter-spacing:0;word-spacing:0;writing-mode:lr-tb;text-anchor:start;fill:#fff;fill-opacity:1;stroke:none;stroke-width:.26458332px;stroke-linecap:butt;stroke-linejoin:miter;stroke-opacity:1"><path d="m 36.734547,-5.2188523 c 0.380342,0 0.645834,-0.099754 0.796479,-0.2992606 0.150644,-0.2011031 0.225967,-0.563408 0.225967,-1.0869146 0,-0.5282949 -0.07532,-0.8921958 -0.225967,-1.0917029 -0.149153,-0.2011032 -0.414646,-0.3016548 -0.796479,-0.3016548 h -0.214781 v 2.7795329 z m 0.0089,-3.176951 c 0.510105,0 0.959924,0.038483 1.201552,0.3289651 0.241628,0.2904823 0.28849,0.8489248 0.28849,1.4618107 0,0.6096937 -0.05097,1.1409181 -0.292598,1.4314005 -0.241629,0.2888862 -0.687339,0.3521929 -1.197444,0.3521929 h -0.677902 v -3.5743692 z" style="font-size:4.76249981px;fill:#fff;fill-opacity:1;stroke-width:.26458332px" id="path4980"/><path d="m 39.416509,-7.374682 0.802684,4.768e-4 0.01072,2.1092046 0.323533,-0.00427 0.0043,0.4307556 -1.11338,0.00854 0.01281,-0.4392963 h 0.319263 l -0.0084,-1.6582097 -0.351555,6.36e-4 z m 0.372748,-1.0651357 h 0.427881 l -0.0044,0.78334 -0.425031,-4.739e-4 z" style="font-size:4.76249981px;fill:#fff;fill-opacity:1;stroke-width:.26458332px" id="path4982"/><path d="m 43.125816,-6.0642176 h -0.27473 c -0.249596,0 -0.406952,-0.022255 -0.534076,0.066111 -0.125574,0.086816 -0.188361,0.217041 -0.188361,0.3906738 0,0.1565796 -0.0093,0.177762 0.09181,0.2675815 0.119043,0.1057463 0.200316,0.063855 0.367748,0.063855 0.235644,0 0.606933,-0.00609 0.84811,-0.022709 -0.0072,-0.223167 -0.0098,-0.3086156 -0.01715,-0.622359 v -0.1443988 z m 0.78146,-0.052714 -0.01329,1.2910685 -0.470069,0.00443 c -0.383705,0.023525 -0.613681,-0.015785 -0.877687,0.00543 -0.2651,0 -0.450139,-0.012404 -0.608269,-0.1612326 -0.15813,-0.1503784 -0.237195,-0.3511413 -0.237195,-0.6022888 0,-0.2899047 0.09689,-0.5100463 0.29068,-0.6604247 0.195337,-0.1503784 0.481366,-0.2255676 0.858087,-0.2255676 h 0.574384 v -0.067438 c -0.0015,-0.2077528 0.02628,-0.3111209 -0.0862,-0.3697529 -0.134874,-0.00598 -0.357472,-0.011877 -0.574003,-0.015059 -0.216531,-0.00318 -0.201855,-0.00432 -0.415259,-0.00808 -0.213404,-0.00376 -0.231246,-0.00347 -0.455954,-0.014158 l -0.001,-0.3673202 c 0.188279,-0.043006 0.323439,-0.05143 0.475607,-0.068437 0.152169,-0.017007 0.216267,-0.024363 0.392225,-0.024363 0.175959,0 0.545366,0.00521 0.697295,0.068767 0.153479,0.063562 0.09339,0.025958 0.258827,0.144224 0.06634,0.04776 0.147125,0.2290897 0.175883,0.3915519 0.0137,0.1385602 0.01156,0.2868772 0.01156,0.5147702 z" style="font-size:4.76249981px;fill:#fff;fill-opacity:1;stroke-width:.26458332px" id="path4984"/><path d="m 45.900031,-5.6889027 c -1.56e-4,0.1884622 -0.0045,0.2960245 0.0014,0.4029534 0.128075,2.853e-4 0.38981,0.00676 0.325949,0.00344 l -1.39e-4,0.1054309 v 0.3556467 c 0,0 -0.204277,-1.388e-4 -0.306416,0 -0.276552,3.759e-4 -0.618616,0.00213 -0.829655,0.00226 -0.0042,-0.2397473 -0.0023,-0.4554667 4.08e-4,-0.4668341 0,0 0.0976,0.00163 0.189007,0.00197 0.183136,6.815e-4 0.166946,0.017973 0.166109,-0.027117 -0.0021,-0.1142859 0.002,-0.2795005 0.0012,-0.4269249 l -0.01118,-2.2559473 h -0.354419 l -0.0045,-0.3998272 h 0.824422 z" style="font-size:4.76249981px;fill:#fff;fill-opacity:1;stroke-width:.26458332px" id="path4986"/><path d="m 48.501809,-7.0373667 q -0.331439,0 -0.501894,0.2391665 -0.170455,0.2391665 -0.170455,0.7087226 0,0.4673619 0.170455,0.7087226 0.170455,0.2391664 0.501894,0.2391664 0.333808,0 0.504263,-0.2391664 0.170454,-0.2413607 0.170454,-0.7087226 0,-0.4695561 -0.170454,-0.7087226 -0.170455,-0.2391665 -0.504263,-0.2391665 z m 0,-0.3422933 q 0.55161,0 0.842805,0.3313224 0.29356,0.3313223 0.29356,0.95886 0,0.6297319 -0.291193,0.9610541 -0.291194,0.3291282 -0.845172,0.3291282 -0.55161,0 -0.842803,-0.3291282 -0.291194,-0.3313222 -0.291194,-0.9610541 0,-0.6275377 0.291194,-0.95886 0.291193,-0.3313224 0.842803,-0.3313224 z" style="font-size:4.76249981px;fill:#fff;fill-opacity:1;stroke-width:.26458335px" id="path4988"/><path d="m 51.964761,-6.1043033 c 0,-0.3153981 -0.05478,-0.554613 -0.164328,-0.7176449 -0.107941,-0.1645555 -0.439029,-0.1268362 -0.646856,-0.1268362 -0.217493,0 -0.394754,0.042656 -0.497818,0.2468332 -0.0023,0.1743523 0.0016,0.2822498 0.0016,0.5976479 0,0.3153981 0.05719,0.5561367 0.171579,0.7222158 0.115996,0.1645555 0.262038,0.1347607 0.481143,0.1347607 0.204605,0 0.382387,0.029033 0.490328,-0.1370461 0.109552,-0.1660792 0.164328,-0.406056 0.164328,-0.7199304 z m 0.444654,1.1358901 c 0,0.3839629 -0.09586,0.6749823 -0.287575,0.8730584 -0.191717,0.1980761 -0.459268,0.2076824 -0.706567,0.2076824 -0.247298,0 -0.33316,0.00858 -0.480462,0.00196 -0.147303,-0.00662 -0.39649,-0.028793 -0.530208,-0.069932 l -0.0045,-0.4386006 c 0.175997,0.00217 0.296741,0.00642 0.436946,0.00372 0.140205,-0.0027 0.242375,-0.00179 0.41637,-0.00179 0.173995,0 0.335605,0.014139 0.574211,-0.044752 0.119552,-0.1030316 0.110826,-0.1010778 0.134895,-0.3592803 -0.223716,-0.00621 -0.02265,-0.00143 -0.203956,7.318e-4 -0.141072,0.00169 -0.355235,0.010041 -0.530841,0.010041 -0.315768,0 -0.607522,-0.059609 -0.796017,-0.298824 -0.188494,-0.2392149 -0.243119,-0.6191825 -0.243119,-1.0199056 0,-0.4022468 0.06708,-0.7229777 0.255572,-0.9621926 0.188495,-0.239215 0.396232,-0.2914175 0.774508,-0.2965599 0.378275,-0.00514 0.57781,-0.00176 0.781477,0.00434 l 0.407313,0.00318 z" style="font-size:4.76249981px;fill:#fff;fill-opacity:1;stroke-width:.26458332px" id="path4990"/></g><rect style="opacity:1;fill:#c8c8c8;fill-opacity:1;stroke:none;stroke-width:.26458332;stroke-linecap:round;stroke-linejoin:round;stroke-miterlimit:1.5;stroke-dasharray:none;stroke-dashoffset:0;stroke-opacity:1;paint-order:normal" id="title-bar-button" width="8.467" height="5.637" x="67.937" y="28.362"/><path style="opacity:1;fill:none;stroke:#727272;stroke-width:.40613541;stroke-miterlimit:4;stroke-dasharray:none;stroke-opacity:1" id="title-bar-button-line" d="M 73.131727,31.089285 H 71.019288"/><rect style="opacity:1;fill:#fff;fill-opacity:1;stroke:none;stroke-width:.26458332;stroke-linecap:round;stroke-linejoin:round;stroke-miterlimit:1.5;stroke-dasharray:none;stroke-dashoffset:0;stroke-opacity:1;paint-order:normal" id="dialog-client-area" width="90.317" height="62.011" x="67.937" y="34"/><rect style="opacity:1;fill:#fff;fill-opacity:0;stroke:#000;stroke-width:.26458332;stroke-linecap:round;stroke-linejoin:round;stroke-miterlimit:1.5;stroke-dasharray:none;stroke-dashoffset:0;stroke-opacity:1;paint-order:normal" id="dialog-border" width="87.551" height="56.459" x="69.367" y="36.826"/><path id="button-shadow" style="opacity:1;fill:#333;fill-opacity:1;stroke:none;stroke-width:.40613541;stroke-linecap:round;stroke-linejoin:round;stroke-miterlimit:4;stroke-dasharray:none;stroke-dashoffset:0;stroke-opacity:1;paint-order:normal" d="m 124.38536,84.735805 h 25.40168 v 2.900645 h -25.40168 z m 25.3985,-2.767792 h 2.81775 v 5.668438 h -2.81775 z"/><rect style="opacity:1;fill:#727272;fill-opacity:1;stroke:none;stroke-width:.40613541;stroke-linecap:round;stroke-linejoin:round;stroke-miterlimit:4;stroke-dasharray:none;stroke-dashoffset:0;stroke-opacity:1;paint-order:normal" id="button" width="28.224" height="5.637" x="121.563" y="79.098"/><g id="button-text" transform="translate(71.692613,37.697864)"><path style="font-style:normal;font-variant:normal;font-weight:400;font-stretch:normal;font-size:medium;line-height:125%;font-family:'Bitstream Vera Sans Mono';-inkscape-font-specification:'Bitstream Vera Sans Mono, Normal';font-variant-ligatures:normal;font-variant-caps:normal;font-variant-numeric:normal;font-feature-settings:normal;text-align:start;letter-spacing:0;word-spacing:0;writing-mode:lr-tb;text-anchor:start;fill:none;fill-opacity:1;stroke:#fff;stroke-width:.2473854;stroke-linecap:butt;stroke-linejoin:miter;stroke-miterlimit:4;stroke-dasharray:none;stroke-opacity:1" id="Q-underline" d="M 61.074994,46.475002 H 58.683557"/><path d="m 61.556895,45.081249 v -1.673628 h 0.452124 v 1.673628 q 0,0.364146 0.130232,0.535368 0.132689,0.17122 0.407894,0.17122 0.319436,0 0.488983,-0.219452 0.169546,-0.221864 0.169546,-0.634242 v -1.526522 h 0.454582 v 2.696132 H 63.205674 V 45.69861 q -0.120402,0.233922 -0.329264,0.3545 -0.206404,0.120579 -0.484068,0.120579 -0.422638,0 -0.629042,-0.270097 -0.206405,-0.272507 -0.206405,-0.822343 z" style="font-style:normal;font-variant:normal;font-weight:400;font-stretch:normal;font-size:medium;line-height:125%;font-family:'Bitstream Vera Sans Mono';-inkscape-font-specification:'Bitstream Vera Sans Mono, Normal';font-variant-ligatures:normal;font-variant-caps:normal;font-variant-numeric:normal;font-feature-settings:normal;text-align:start;letter-spacing:0;word-spacing:0;writing-mode:lr-tb;text-anchor:start;fill:#c8c8c8;fill-opacity:1;stroke:none;stroke-width:.26458332px;stroke-linecap:butt;stroke-linejoin:miter;stroke-opacity:1" id="path4661"/><path d="m 64.87924,43.518911 0.785453,4.86e-4 0.01049,2.155477 0.316588,-0.0044 0.0042,0.440206 -1.08948,0.0087 0.01253,-0.448935 h 0.31241 l -0.0082,-1.694587 -0.344008,6.5e-4 z m 0.364746,-1.088502 h 0.418696 l -0.0043,0.800525 -0.415908,-4.84e-4 z" style="font-style:normal;font-variant:normal;font-weight:400;font-stretch:normal;font-size:4.76249981px;line-height:125%;font-family:'Bitstream Vera Sans Mono';-inkscape-font-specification:'Bitstream Vera Sans Mono, Normal';font-variant-ligatures:normal;font-variant-caps:normal;font-variant-numeric:normal;font-feature-settings:normal;text-align:start;letter-spacing:0;word-spacing:0;writing-mode:lr-tb;text-anchor:start;fill:#c8c8c8;fill-opacity:1;stroke:none;stroke-width:.26458332px;stroke-linecap:butt;stroke-linejoin:miter;stroke-opacity:1" id="path4982-36"/><path d="m 68.340878,42.63592 -0.0082,0.870231 0.667564,-0.0041 0.0041,0.415134 -0.655161,-0.0041 -0.0082,1.300867 c -0.0013,0.199353 0.03618,0.338423 0.108529,0.417201 0.07235,0.07878 0.198587,0.118167 0.378699,0.118167 h 0.477992 v 0.354501 h -0.519556 c -0.318661,0 -0.543417,-0.06672 -0.674269,-0.200161 -0.130851,-0.133439 -0.196277,-0.363343 -0.196277,-0.689708 l -0.0041,-1.305001 c -0.332119,0 -0.359412,0.0041 -0.686298,0.01654 l -0.0041,-0.427537 h 0.686297 l 0.0082,-0.861963 z" style="font-style:normal;font-variant:normal;font-weight:400;font-stretch:normal;font-size:medium;line-height:125%;font-family:'Bitstream Vera Sans Mono';-inkscape-font-specification:'Bitstream Vera Sans Mono, Normal';font-variant-ligatures:normal;font-variant-caps:normal;font-variant-numeric:normal;font-feature-settings:normal;text-align:start;letter-spacing:0;word-spacing:0;writing-mode:lr-tb;text-anchor:start;fill:#c8c8c8;fill-opacity:1;stroke:none;stroke-width:.26458332px;stroke-linecap:butt;stroke-linejoin:miter;stroke-opacity:1" id="path4665"/><path id="path4722" d="m 510.18359,316.11914 c -1.46621,0 -2.55977,0.58334 -3.28125,1.75 -0.71566,1.16667 -1.07226,2.93858 -1.07226,5.31445 0,2.36979 0.35661,4.13802 1.07226,5.30469 0.72148,1.16667 1.8091,1.75 3.26368,1.75 0.0465,0 0.10796,-0.004 0.18359,-0.01 -0.0488,0.12717 1.33074,-0.19815 1.57569,-0.41698 l 1.28368,0.84276 1.26563,-0.56055 -1.06836,-1.21875 c 0.32119,-0.33486 0.4522,-0.54975 0.64258,-0.95312 0.1363,-0.31537 0.5,-2.95183 0.5,-4.73829 0,-2.37587 -0.36056,-4.14778 -1.08203,-5.31445 -0.71565,-1.16666 -1.81117,-1.75 -3.28321,-1.75 z m 0,1.49414 c 0.89602,0 1.53987,0.42839 1.92969,1.28516 0.39565,0.85677 0.59375,2.28406 0.59375,4.2832 0,1.99913 -0.1981,3.42838 -0.59375,4.28516 -0.30165,-0.10534 -0.78096,-0.85138 -1.30469,-0.84571 l -1.45507,0.31641 1.03906,1.17969 0.4375,0.52539 c 0.0131,-7.4e-4 0.0224,-0.005 0.0351,-0.006 -0.20919,0.0651 -0.43368,0.10547 -0.68164,0.10547 -0.8902,0 -1.53209,-0.42839 -1.92773,-1.28516 -0.38983,-0.85677 -0.58398,-2.28233 -0.58398,-4.27539 -10e-6,-1.99914 0.19416,-3.42643 0.58398,-4.2832 0.39564,-0.85677 1.03753,-1.28516 1.92773,-1.28516 z" transform="matrix(0.26458333,0,0,0.26458333,-75.17538,-41.201563)" style="font-style:normal;font-variant:normal;font-weight:700;font-stretch:normal;font-size:medium;line-height:125%;font-family:Arial;-inkscape-font-specification:'Arial Bold';text-align:start;letter-spacing:0;word-spacing:0;writing-mode:lr-tb;text-anchor:start;fill:#fff;fill-opacity:1;stroke:none;stroke-width:1px;stroke-linecap:butt;stroke-linejoin:miter;stroke-opacity:1"/></g><path id="grid" d="M 0.19939842,0.00358645 V 135.70594 M 3.0218084,0.00358645 V 135.70594 M 5.8442174,0.00358645 V 135.70594 M 8.6666254,0.00358645 V 135.70594 M 11.489038,0.00358645 V 135.70594 M 14.311447,0.00358645 V 135.70594 M 17.133854,0.00358645 V 135.70594 M 19.956264,0.00358645 V 135.70594 M 22.778672,0.00358645 V 135.70594 M 25.60108,0.00358645 V 135.70594 M 28.42349,0.00358645 V 135.70594 M 31.245898,0.00358645 V 135.70594 M 34.068306,0.00358645 V 135.70594 M 36.890714,0.00358645 V 135.70594 M 39.713123,0.00358645 V 135.70594 M 42.535532,0.00358645 V 135.70594 M 45.35794,0.00358645 V 135.70594 M 48.180349,0.00358645 V 135.70594 M 51.00276,0.00358645 V 135.70594 M 53.82517,0.00358645 V 135.70594 M 56.647575,0.00358645 V 135.70594 M 59.469985,0.00358645 V 135.70594 M 62.292391,0.00358645 V 135.70594 M 65.114806,0.00358645 V 135.70594 M 67.937211,0.00358645 V 135.70594 M 70.759622,0.00358645 V 135.70594 M 73.582026,0.00358645 V 135.70594 M 76.404432,0.00358645 V 135.70594 M 79.226847,0.00358645 V 135.70594 M 82.049252,0.00358645 V 135.70594 M 84.871663,0.00358645 V 135.70594 M 87.694067,0.00358645 V 135.70594 M 90.516478,0.00358645 V 135.70594 M 93.338889,0.00358645 V 135.70594 M 96.161298,0.00358645 V 135.70594 M 98.983704,0.00358645 V 135.70594 M 101.8061,0.00358645 V 135.70594 M 104.6285,0.00358645 V 135.70594 M 107.45091,0.00358645 V 135.70594 M 110.27332,0.00358645 V 135.70594 M 113.09573,0.00358645 V 135.70594 M 115.91813,0.00358645 V 135.70594 M 118.74054,0.00358645 V 135.70594 M 121.56296,0.00358645 V 135.70594 M 124.38536,0.00358645 V 135.70594 M 127.20777,0.00358645 V 135.70594 M 130.03017,0.00358645 V 135.70594 M 132.85259,0.00358645 V 135.70594 M 135.67499,0.00358645 V 135.70594 M 138.49741,0.00358645 V 135.70594 M 141.31982,0.00358645 V 135.70594 M 144.14222,0.00358645 V 135.70594 M 146.96463,0.00358645 V 135.70594 M 149.78704,0.00358645 V 135.70594 M 152.60945,0.00358645 V 135.70594 M 155.43186,0.00358645 V 135.70594 M 158.25427,0.00358645 V 135.70594 M 161.07667,0.00358645 V 135.70594 M 163.89908,0.00358645 V 135.70594 M 166.72149,0.00358645 V 135.70594 M 169.5439,0.00358645 V 135.70594 M 172.36631,0.00358645 V 135.70594 M 175.18871,0.00358645 V 135.70594 M 178.01112,0.00358645 V 135.70594 M 180.83353,0.00358645 V 135.70594 M 183.65594,0.00358645 V 135.70594 M 186.47835,0.00358645 V 135.70594 M 189.30076,0.00358645 V 135.70594 M 192.12317,0.00358645 V 135.70594 M 194.94557,0.00358645 V 135.70594 M 197.76799,0.00358645 V 135.70594 M 200.59039,0.00358645 V 135.70594 M 203.41281,0.00358645 V 135.70594 M 206.23521,0.00358645 V 135.70594 M 209.05761,0.00358645 V 135.70594 M 211.88003,0.00358645 V 135.70594 M 214.70243,0.00358645 V 135.70594 M 217.52485,0.00358645 V 135.70594 M 220.34725,0.00358645 V 135.70594 M 223.16966,0.00358645 V 135.70594 M 225.99207,0.00358645 V 135.70594 M 0.19939842,0.17562045 H 226.19405 M 0.19939842,5.8129634 H 226.19405 M 0.19939842,11.450306 H 226.19405 M 0.19939842,17.087659 H 226.19405 M 0.19939842,22.725002 H 226.19405 M 0.19939842,28.362345 H 226.19405 M 0.19939842,33.999698 H 226.19405 M 0.19939842,39.637041 H 226.19405 M 0.19939842,45.274384 H 226.19405 M 0.19939842,50.911727 H 226.19405 M 0.19939842,56.54908 H 226.19405 M 0.19939842,62.186423 H 226.19405 M 0.19939842,67.823776 H 226.19405 M 0.19939842,73.461119 H 226.19405 M 0.19939842,79.098462 H 226.19405 M 0.19939842,84.735805 H 226.19405 M 0.19939842,90.373158 H 226.19405 M 0.19939842,96.010501 H 226.19405 M 0.19939842,101.64789 H 226.19405 M 0.19939842,107.28523 H 226.19405 M 0.19939842,112.92258 H 226.19405 M 0.19939842,118.55993 H 226.19405 M 0.19939842,124.19727 H 226.19405 M 0.19939842,129.83461 H 226.19405 M 0.19939842,135.47196 H 226.19405" style="fill:none;stroke:#7c7c7c;stroke-width:.106363;stroke-dasharray:.212725,.106363,.053181,.106363;stroke-opacity:.57478602"/></g><path style="fill:none;stroke:#4f4f4f;stroke-width:3.60800004;stroke-linejoin:round" id="path163" d="M -1.6787666,-1.6996976 H 227.87363 V 137.34287 H -1.6787666 Z"/><text style="font-style:normal;font-variant:normal;font-weight:400;font-stretch:normal;font-size:3.88055563px;font-family:FreeSans,Arial,'Bitstream Vera Sans','DejaVu Sans','Open Sans',sans-serif;-inkscape-font-specification:'FreeSans, Arial, Bitstream Vera Sans, DejaVu Sans, Open Sans, sans-serif, Normal';font-variant-ligatures:normal;font-variant-caps:normal;font-variant-numeric:normal;font-feature-settings:normal;text-align:start;writing-mode:lr-tb;text-anchor:start;stroke-width:.26458299" id="text89" x="41.528" y="4.955" font-size="3.881"><tspan style="stroke-width:.26458299" id="tspan4726" x="41.528" y="4.955">getSize() = FSize(32,12)</tspan></text><path id="path99-8" d="m 141.17255,88.237306 23.08169,15.614314" style="fill:none;stroke:#000;stroke-width:.40613499;marker-start:url(#b-0-367)"/><text style="font-style:normal;font-variant:normal;font-weight:400;font-stretch:normal;font-size:3.88055587px;font-family:FreeSans,Arial,'Bitstream Vera Sans','DejaVu Sans','Open Sans',sans-serif;-inkscape-font-specification:'FreeSans, Arial, Bitstream Vera Sans, DejaVu Sans, Open Sans, sans-serif, Normal';font-variant-ligatures:normal;font-variant-caps:normal;font-variant-numeric:normal;font-feature-settings:normal;text-align:start;writing-mode:lr-tb;text-anchor:start;stroke-width:.26458299" id="text89-30" x="57.41" y="15.569" font-size="3.881"><tspan style="stroke-width:.26458299" id="tspan4726-3" x="57.41" y="15.569">= FPoint(25,6), FPoint(56,17)</tspan></text><text style="font-style:normal;font-variant:normal;font-weight:400;font-stretch:normal;font-size:3.88055587px;font-family:FreeSans,Arial,'Bitstream Vera Sans','DejaVu Sans','Open Sans',sans-serif;-inkscape-font-specification:'FreeSans, Arial, Bitstream Vera Sans, DejaVu Sans, Open Sans, sans-serif, Normal';font-variant-ligatures:normal;font-variant-caps:normal;font-variant-numeric:normal;font-feature-settings:normal;text-align:start;writing-mode:lr-tb;text-anchor:start;stroke-width:.26458299" id="text89-30-0" x="32.32" y="10.262" font-size="3.881"><tspan style="stroke-width:.26458299" id="tspan4726-3-9" x="32.32" y="10.262">getGeometry() = FPoint(25,6), FSize(32,12)</tspan></text><text style="font-style:normal;font-variant:normal;font-weight:400;font-stretch:normal;font-size:3.88055587px;font-family:FreeSans,Arial,'Bitstream Vera Sans','DejaVu Sans','Open Sans',sans-serif;-inkscape-font-specification:'FreeSans, Arial, Bitstream Vera Sans, DejaVu Sans, Open Sans, sans-serif, Normal';font-variant-ligatures:normal;font-variant-caps:normal;font-variant-numeric:normal;font-feature-settings:normal;text-align:start;writing-mode:lr-tb;text-anchor:start;stroke-width:.26458299" id="text89-30-2" x="23.298" y="20.877" font-size="3.881"><tspan style="stroke-width:.26458299" id="tspan4726-3-5" x="23.298" y="20.877">getTermGeometry() = FPoint(25,6), FSize(32,12)</tspan></text><text style="font-style:normal;font-variant:normal;font-weight:400;font-stretch:normal;font-size:3.88055587px;font-family:FreeSans,Arial,'Bitstream Vera Sans','DejaVu Sans','Open Sans',sans-serif;-inkscape-font-specification:'FreeSans, Arial, Bitstream Vera Sans, DejaVu Sans, Open Sans, sans-serif, Normal';font-variant-ligatures:normal;font-variant-caps:normal;font-variant-numeric:normal;font-feature-settings:normal;text-align:start;writing-mode:lr-tb;text-anchor:start;stroke-width:.26458299" id="text89-30-4" x="57.41" y="26.184" font-size="3.881"><tspan style="stroke-width:.26458299" id="tspan4726-3-0" x="57.41" y="26.184">= FPoint(25,6), FPoint(56,17)</tspan></text><text style="font-style:normal;font-variant:normal;font-weight:400;font-stretch:normal;font-size:3.88055587px;font-family:FreeSans,Arial,'Bitstream Vera Sans','DejaVu Sans','Open Sans',sans-serif;-inkscape-font-specification:'FreeSans, Arial, Bitstream Vera Sans, DejaVu Sans, Open Sans, sans-serif, Normal';font-variant-ligatures:normal;font-variant-caps:normal;font-variant-numeric:normal;font-feature-settings:normal;text-align:start;writing-mode:lr-tb;text-anchor:start;stroke-width:.26458299" id="text89-30-2-0" x="35.09" y="107.477" font-size="3.881"><tspan style="stroke-width:.26458299" id="tspan4726-3-5-3" x="35.09" y="107.477">getShadow() = FSize(2,1)</tspan></text><text style="font-style:normal;font-variant:normal;font-weight:400;font-stretch:normal;font-size:3.88055587px;font-family:FreeSans,Arial,'Bitstream Vera Sans','DejaVu Sans','Open Sans',sans-serif;-inkscape-font-specification:'FreeSans, Arial, Bitstream Vera Sans, DejaVu Sans, Open Sans, sans-serif, Normal';font-variant-ligatures:normal;font-variant-caps:normal;font-variant-numeric:normal;font-feature-settings:normal;text-align:start;writing-mode:lr-tb;text-anchor:start;stroke-width:.26458299" id="text89-30-4-0" x="10.801" y="112.856" font-size="3.881"><tspan style="stroke-width:.26458299" id="tspan4726-3-0-9" x="10.801" y="112.856">getGeometryWithShadow() = FPoint(25,6), FSize(34,13)</tspan></text><text style="font-style:normal;font-variant:normal;font-weight:400;font-stretch:normal;font-size:3.88055587px;font-family:FreeSans,Arial,'Bitstream Vera Sans','DejaVu Sans','Open Sans',sans-serif;-inkscape-font-specification:'FreeSans, Arial, Bitstream Vera Sans, DejaVu Sans, Open Sans, sans-serif, Normal';font-variant-ligatures:normal;font-variant-caps:normal;font-variant-numeric:normal;font-feature-settings:normal;text-align:start;writing-mode:lr-tb;text-anchor:start;stroke-width:.26458299" id="text89-30-4-0-2" x="57.21" y="118.224" font-size="3.881"><tspan style="stroke-width:.26458299" id="tspan4726-3-0-9-5" x="57.21" y="118.224">= FPoint(25,6), FPoint(58,18)</tspan></text><text style="font-style:normal;font-variant:normal;font-weight:400;font-stretch:normal;font-size:3.88055587px;font-family:FreeSans,Arial,'Bitstream Vera Sans','DejaVu Sans','Open Sans',sans-serif;-inkscape-font-specification:'FreeSans, Arial, Bitstream Vera Sans, DejaVu Sans, Open Sans, sans-serif, Normal';font-variant-ligatures:normal;font-variant-caps:normal;font-variant-numeric:normal;font-feature-settings:normal;text-align:start;writing-mode:lr-tb;text-anchor:start;stroke-width:.26458299" id="text89-30-4-0-4" x="1.789" y="123.615" font-size="3.881"><tspan style="stroke-width:.26458299" id="tspan4726-3-0-9-0" x="1.789" y="123.615">getTermGeometryWithShadow() = FPoint(25,6), FSize(34,13)</tspan></text><text style="font-style:normal;font-variant:normal;font-weight:400;font-stretch:normal;font-size:3.88055587px;font-family:FreeSans,Arial,'Bitstream Vera Sans','DejaVu Sans','Open Sans',sans-serif;-inkscape-font-specification:'FreeSans, Arial, Bitstream Vera Sans, DejaVu Sans, Open Sans, sans-serif, Normal';font-variant-ligatures:normal;font-variant-caps:normal;font-variant-numeric:normal;font-feature-settings:normal;text-align:start;writing-mode:lr-tb;text-anchor:start;stroke-width:.26458299" id="text89-30-4-0-2-5" x="57.21" y="128.983" font-size="3.881"><tspan style="stroke-width:.26458299" id="tspan4726-3-0-9-5-9" x="57.21" y="128.983">= FPoint(25,6), FPoint(58,18)</tspan></text><text style="font-style:normal;font-variant:normal;font-weight:400;font-stretch:normal;font-size:3.88055587px;font-family:FreeSans,Arial,'Bitstream Vera Sans','DejaVu Sans','Open Sans',sans-serif;-inkscape-font-specification:'FreeSans, Arial, Bitstream Vera Sans, DejaVu Sans, Open Sans, sans-serif, Normal';font-variant-ligatures:normal;font-variant-caps:normal;font-variant-numeric:normal;font-feature-settings:normal;text-align:start;writing-mode:lr-tb;text-anchor:start;stroke-width:.26458299" id="text89-7" x="157.047" y="4.956" font-size="3.881"><tspan style="stroke-width:.26458299" id="tspan4726-7" x="157.047" y="4.956">getSize() = FSize(10,1)</tspan></text><text style="font-style:normal;font-variant:normal;font-weight:400;font-stretch:normal;font-size:3.88055587px;font-family:FreeSans,Arial,'Bitstream Vera Sans','DejaVu Sans','Open Sans',sans-serif;-inkscape-font-specification:'FreeSans, Arial, Bitstream Vera Sans, DejaVu Sans, Open Sans, sans-serif, Normal';font-variant-ligatures:normal;font-variant-caps:normal;font-variant-numeric:normal;font-feature-settings:normal;text-align:start;writing-mode:lr-tb;text-anchor:start;stroke-width:.26458299" id="text89-30-5" x="172.91" y="15.57" font-size="3.881"><tspan style="stroke-width:.26458299" id="tspan4726-3-4" x="172.91" y="15.57">= FPoint(19,8), FPoint(28,8)</tspan></text><text style="font-style:normal;font-variant:normal;font-weight:400;font-stretch:normal;font-size:3.88055587px;font-family:FreeSans,Arial,'Bitstream Vera Sans','DejaVu Sans','Open Sans',sans-serif;-inkscape-font-specification:'FreeSans, Arial, Bitstream Vera Sans, DejaVu Sans, Open Sans, sans-serif, Normal';font-variant-ligatures:normal;font-variant-caps:normal;font-variant-numeric:normal;font-feature-settings:normal;text-align:start;writing-mode:lr-tb;text-anchor:start;stroke-width:.26458299" id="text89-30-0-8" x="147.84" y="10.263" font-size="3.881"><tspan style="stroke-width:.26458299" id="tspan4726-3-9-1" x="147.84" y="10.263">getGeometry() = FPoint(19,8), FSize(10,1)</tspan></text><text style="font-style:normal;font-variant:normal;font-weight:400;font-stretch:normal;font-size:3.88055587px;font-family:FreeSans,Arial,'Bitstream Vera Sans','DejaVu Sans','Open Sans',sans-serif;-inkscape-font-specification:'FreeSans, Arial, Bitstream Vera Sans, DejaVu Sans, Open Sans, sans-serif, Normal';font-variant-ligatures:normal;font-variant-caps:normal;font-variant-numeric:normal;font-feature-settings:normal;text-align:start;writing-mode:lr-tb;text-anchor:start;stroke-width:.26458299" id="text89-30-2-2" x="138.818" y="20.877" font-size="3.881"><tspan style="stroke-width:.26458299" id="tspan4726-3-5-8" x="138.818" y="20.877">getTermGeometry() = FPoint(44,15), FSize(10,1)</tspan></text><text style="font-style:normal;font-variant:normal;font-weight:400;font-stretch:normal;font-size:3.88055587px;font-family:FreeSans,Arial,'Bitstream Vera Sans','DejaVu Sans','Open Sans',sans-serif;-inkscape-font-specification:'FreeSans, Arial, Bitstream Vera Sans, DejaVu Sans, Open Sans, sans-serif, Normal';font-variant-ligatures:normal;font-variant-caps:normal;font-variant-numeric:normal;font-feature-settings:normal;text-align:start;writing-mode:lr-tb;text-anchor:start;stroke-width:.26458299" id="text89-30-4-9" x="172.91" y="26.184" font-size="3.881"><tspan style="stroke-width:.26458299" id="tspan4726-3-0-3" x="172.91" y="26.184">= FPoint(44,15), FPoint(53,15)</tspan></text><text style="font-style:normal;font-variant:normal;font-weight:400;font-stretch:normal;font-size:3.88055587px;font-family:FreeSans,Arial,'Bitstream Vera Sans','DejaVu Sans','Open Sans',sans-serif;-inkscape-font-specification:'FreeSans, Arial, Bitstream Vera Sans, DejaVu Sans, Open Sans, sans-serif, Normal';font-variant-ligatures:normal;font-variant-caps:normal;font-variant-numeric:normal;font-feature-settings:normal;text-align:start;writing-mode:lr-tb;text-anchor:start;stroke-width:.26458299" id="text89-30-2-0-6" x="150.609" y="107.477" font-size="3.881"><tspan style="stroke-width:.26458299" id="tspan4726-3-5-3-8" x="150.609" y="107.477">getShadow() = FSize(1,1)</tspan></text><text style="font-style:normal;font-variant:normal;font-weight:400;font-stretch:normal;font-size:3.88055587px;font-family:FreeSans,Arial,'Bitstream Vera Sans','DejaVu Sans','Open Sans',sans-serif;-inkscape-font-specification:'FreeSans, Arial, Bitstream Vera Sans, DejaVu Sans, Open Sans, sans-serif, Normal';font-variant-ligatures:normal;font-variant-caps:normal;font-variant-numeric:normal;font-feature-settings:normal;text-align:start;writing-mode:lr-tb;text-anchor:start;stroke-width:.26458299" id="text89-30-4-0-0" x="126.321" y="112.856" font-size="3.881"><tspan style="stroke-width:.26458299" id="tspan4726-3-0-9-2" x="126.321" y="112.856">getGeometryWithShadow() = FPoint(19,8), FSize(11,2)</tspan></text><text style="font-style:normal;font-variant:normal;font-weight:400;font-stretch:normal;font-size:3.88055587px;font-family:FreeSans,Arial,'Bitstream Vera Sans','DejaVu Sans','Open Sans',sans-serif;-inkscape-font-specification:'FreeSans, Arial, Bitstream Vera Sans, DejaVu Sans, Open Sans, sans-serif, Normal';font-variant-ligatures:normal;font-variant-caps:normal;font-variant-numeric:normal;font-feature-settings:normal;text-align:start;writing-mode:lr-tb;text-anchor:start;stroke-width:.26458299" id="text89-30-4-0-2-1" x="172.91" y="118.224" font-size="3.881"><tspan style="stroke-width:.26458299" id="tspan4726-3-0-9-5-0" x="172.91" y="118.224">= FPoint(19,8), FPoint(29,9)</tspan></text><text style="font-style:normal;font-variant:normal;font-weight:400;font-stretch:normal;font-size:3.88055587px;font-family:FreeSans,Arial,'Bitstream Vera Sans','DejaVu Sans','Open Sans',sans-serif;-inkscape-font-specification:'FreeSans, Arial, Bitstream Vera Sans, DejaVu Sans, Open Sans, sans-serif, Normal';font-variant-ligatures:normal;font-variant-caps:normal;font-variant-numeric:normal;font-feature-settings:normal;text-align:start;writing-mode:lr-tb;text-anchor:start;stroke-width:.26458299" id="text89-30-4-0-4-5" x="117.309" y="123.615" font-size="3.881"><tspan style="stroke-width:.26458299" id="tspan4726-3-0-9-0-1" x="117.309" y="123.615">getTermGeometryWithShadow() = FPoint(44,15), FSize(11,2)</tspan></text><text style="font-style:normal;font-variant:normal;font-weight:400;font-stretch:normal;font-size:3.88055587px;font-family:FreeSans,Arial,'Bitstream Vera Sans','DejaVu Sans','Open Sans',sans-serif;-inkscape-font-specification:'FreeSans, Arial, Bitstream Vera Sans, DejaVu Sans, Open Sans, sans-serif, Normal';font-variant-ligatures:normal;font-variant-caps:normal;font-variant-numeric:normal;font-feature-settings:normal;text-align:start;writing-mode:lr-tb;text-anchor:start;stroke-width:.26458299" id="text89-30-4-0-2-5-1" x="172.91" y="128.983" font-size="3.881"><tspan style="stroke-width:.26458299" id="tspan4726-3-0-9-5-9-0" x="172.91" y="128.983">= FPoint(44,15), FPoint(54,16)</tspan></text><path id="path99-8-7" d="M 72.941072,98.826256 46.406441,104.33931" style="fill:none;stroke:#000;stroke-width:.40613499;marker-start:url(#b-0-3)"/><path id="path99-8-7-5" d="M 67.351122,31.942493 40.816491,21.944363" style="fill:none;stroke:#000;stroke-width:.40613502;marker-start:url(#b-0-3-5)"/><path id="path99-8-5" d="M 140.84178,77.363839 158.05881,22.058096" style="fill:none;stroke:#000;stroke-width:.40613505;marker-start:url(#b-0-36)"/><text style="font-style:normal;font-variant:normal;font-weight:400;font-stretch:normal;font-size:9.8777771px;font-family:FreeSans,Arial,'Bitstream Vera Sans','DejaVu Sans','Open Sans',sans-serif;-inkscape-font-specification:'FreeSans, Arial, Bitstream Vera Sans, DejaVu Sans, Open Sans, sans-serif, Normal';font-variant-ligatures:normal;font-variant-caps:normal;font-variant-numeric:normal;font-feature-settings:normal;text-align:start;writing-mode:lr-tb;text-anchor:start;stroke-width:.26458299" id="text89-30-2-0-6-3" x="3.892" y="71.004" font-size="3.881"><tspan style="stroke-width:.26458299" id="tspan4894" x="3.892" y="71.004">FDialog()</tspan></text><text style="font-style:normal;font-variant:normal;font-weight:400;font-stretch:normal;font-size:9.8777771px;font-family:FreeSans,Arial,'Bitstream Vera Sans','DejaVu Sans','Open Sans',sans-serif;-inkscape-font-specification:'FreeSans, Arial, Bitstream Vera Sans, DejaVu Sans, Open Sans, sans-serif, Normal';font-variant-ligatures:normal;font-variant-caps:normal;font-variant-numeric:normal;font-feature-settings:normal;text-align:start;writing-mode:lr-tb;text-anchor:start;stroke-width:.26458299" id="text89-30-2-0-6-3-4" x="182.952" y="71.08" font-size="3.881"><tspan style="font-style:normal;font-variant:normal;font-weight:400;font-stretch:normal;font-size:9.8777771px;font-family:FreeSans,Arial,'Bitstream Vera Sans','DejaVu Sans','Open Sans',sans-serif;-inkscape-font-specification:'FreeSans, Arial, Bitstream Vera Sans, DejaVu Sans, Open Sans, sans-serif, Normal';font-variant-ligatures:normal;font-variant-caps:normal;font-variant-numeric:normal;font-feature-settings:normal;text-align:start;writing-mode:lr-tb;text-anchor:start;stroke-width:.26458299" id="tspan4894-0" x="182.952" y="71.08">FButton()</tspan></text></svg>