<svg fill-rule="evenodd" height="115.46638" viewBox="0 0 657.75873 115.46638" width="657.75873" xmlns="http://www.w3.org/2000/svg"><path d="m147.15428 0h505.60448a5 5 45 0 1 5 5v104.93255a5 5 135 0 1 -5 5h-505.60448a5 5 45 0 1 -5-5v-104.93255a5 5 135 0 1 5-5z" fill="#1d4b9e"/><path d="m449.65082 12.833208h190.2377a5 5 45 0 1 5 5v79.266136a5 5 135 0 1 -5 4.999996h-190.2377a5 5 45 0 1 -5-4.999996v-79.266136a5 5 135 0 1 5-5z" fill="#fff" fill-rule="evenodd" height="89.266136" width="200.2377" x="444.65082" y="12.833208"/><g fill="#9f9f9f" fill-opacity=".62069" transform="scale(.95126779 1.0512287)"><path d="m179.70192 59.885335h30.624v-12h-30.624v-15.84h34.752v-12h-49.152v69.984h14.4z"/><path d="m240.37391 20.045335h-14.4v69.984h14.4z"/><path d="m298.26186 90.029335h14.4v-69.984h-14.4v47.616l-27.744-47.616h-14.784v69.984h14.4v-48.384z"/><path d="m366.90189 75.917335 4.608 14.112h14.784l-24.192-69.984h-15.936l-24.864 69.984h14.688l4.704-14.112zm-3.936-12h-18.24l9.12-27.36z"/><path d="m409.33394 20.045335h-14.4v69.984h47.904v-12h-33.504z"/><path d="m524.72588 43.757335h13.728c-1.248-15.744-12.864-24.864-29.184-24.864-19.776 0-32.064 14.112-32.064 36.768 0 22.464 12.192 36.576 31.68 36.576 17.376 0 28.992-10.08 29.856-26.112h-14.016c-.864 8.928-6.528 14.016-15.456 14.016-11.136 0-17.664-9.024-17.664-24.288 0-15.456 6.816-24.672 18.144-24.672 12 0 14.208 9.024 14.976 12.576z"/><path d="m578.00594 92.237335c11.808 0 27.744-4.992 27.744-24.768v-47.424h-14.4v47.424c0 8.448-4.32 12.48-13.344 12.48s-13.344-4.032-13.344-12.48v-47.424h-14.4v47.424c0 19.776 15.936 24.768 27.744 24.768z"/><path d="m651.92602 32.045335h20.448v-12h-56.064v12h21.216v57.984h14.4z"/></g><g fill="#f3f3f3" stroke="#000" stroke-width=".750118" transform="matrix(.97782034 0 0 .90489512 -39.284411 -25.182596)"><path d="m95.5723 89.7399-1.6271 7.2981h24.3968l55.846-34.4986z"/><path d="m104.606 101.878-7.6095-.008 3.1135-23.0681 41.658-50.7298z"/><ellipse cx="103.3" cy="92.341003" rx="2.99" ry="2.668"/></g><path d="m59.295527 57.032101 4.993722 2.503757" fill="none" stroke="#4c4c4c" stroke-width=".705601"/><path d="m40.134059 57.978261c1.548378-3.401772 1.556005-6.857567.02865-9.874849-3.546652-7.006422-15.418858-8.688622-26.095971-3.802731-10.6769185 4.885981-16.2766023 14.475245-12.5759434 21.499493 7.7567551 14.722102 38.4193424.979278 51.0753694-2.200071l2.820327-13.34105zm-14.243616 6.35155c6.803381-3.113382 10.391688-9.248029 8.013336-13.69948-2.378744-4.451359-9.824943-5.536419-16.628422-2.423128-6.80338 3.113382-10.3918832 9.248119-8.0133353 13.69948 2.3785483 4.451359 9.8248453 5.536509 16.6284213 2.423128z" fill="#1d4b9e" stroke="#000" stroke-width=".706"/><path d="m57.692094 79.369892c3.905904-.748802 7.572045-.08832 10.47578 1.881457 6.743246 4.572706 6.233898 15.678037-1.008621 24.429091-7.242715 8.75042-18.490779 11.98299-25.223463 7.26595-14.110925-9.88652 6.382038-35.073829 12.197429-45.951302l14.689795.01629zm-9.484662 11.705546c4.614628-5.575787 11.81207-7.649716 16.072042-4.629901 4.260168 3.020088 3.972297 9.991042-.64233 15.567093-4.615801 5.57542-11.812656 7.64926-16.072727 4.62963-4.260265-3.01919-3.972199-9.990677.643015-15.566822z" fill="#1d4b9e" stroke="#000" stroke-width=".705601"/><g fill-rule="evenodd" transform="scale(.95126779 1.0512287)"><g fill="#fff"><path d="m177.32292 58.327336h30.624v-12h-30.624v-15.84h34.752v-12h-49.152v69.984h14.4z"/><path d="m237.99492 18.487336h-14.4v69.984h14.4z"/><path d="m295.88287 88.471336h14.4v-69.984h-14.4v47.616l-27.744-47.616h-14.784v69.984h14.4v-48.384z"/><path d="m364.52289 74.359336 4.608 14.112h14.784l-24.192-69.984h-15.936l-24.864 69.984h14.688l4.704-14.112zm-3.936-12h-18.24l9.12-27.36z"/><path d="m406.95494 18.487336h-14.4v69.984h47.904v-12h-33.504z"/></g><g fill="#083c99" fill-opacity=".887477"><path d="m522.61342 42.857814h13.728c-1.248-15.744-12.864-24.864-29.184-24.864-19.776 0-32.064 14.112-32.064 36.768 0 22.464 12.192 36.576 31.68 36.576 17.376 0 28.992-10.08 29.856-26.112h-14.016c-.864 8.928-6.528 14.016-15.456 14.016-11.136 0-17.664-9.024-17.664-24.288 0-15.456 6.816-24.672 18.144-24.672 12 0 14.208 9.024 14.976 12.576z"/><path d="m575.89348 91.337814c11.808 0 27.744-4.992 27.744-24.768v-47.424h-14.4v47.424c0 8.448-4.32 12.48-13.344 12.48s-13.344-4.032-13.344-12.48v-47.424h-14.4v47.424c0 19.776 15.936 24.768 27.744 24.768z"/><path d="m649.81357 31.145814h20.448v-12h-56.064v12h21.216v57.984h14.4z"/></g></g></svg>