<svg xmlns="http://www.w3.org/2000/svg" xmlns:svg="http://www.w3.org/2000/svg" xmlns:xlink="http://www.w3.org/1999/xlink" id="svg2" width="100%" height="100%" version="1.1" viewBox="0 0 650 128" style="fill-rule:evenodd"><metadata id="metadata45"/><defs id="defs43"><linearGradient id="linearGradient3784" x1="165.749" x2="674.013" y1="57.312" y2="57.312" gradientUnits="userSpaceOnUse" xlink:href="#a"/><linearGradient id="linearGradient3792" x1="165.749" x2="674.013" y1="57.312" y2="57.312" gradientUnits="userSpaceOnUse" xlink:href="#a"/><linearGradient id="linearGradient3792-9" x1="165.749" x2="674.013" y1="57.312" y2="57.312" gradientUnits="userSpaceOnUse" xlink:href="#a-8"/><radialGradient id="a-8" cx="134.066" cy="79.789" r="40.121" fx="134.066" fy="79.789" gradientUnits="userSpaceOnUse"><stop id="stop5-1" style="stop-color:#fff;stop-opacity:1" offset="0"/><stop id="stop7-0" style="stop-color:#999;stop-opacity:1" offset="1"/></radialGradient><linearGradient id="linearGradient3808" x1="165.749" x2="674.013" y1="57.312" y2="57.312" gradientUnits="userSpaceOnUse" xlink:href="#a-8"/><radialGradient id="radialGradient3810" cx="134.066" cy="79.789" r="40.121" fx="134.066" fy="79.789" gradientUnits="userSpaceOnUse"><stop id="stop3812" style="stop-color:#fff;stop-opacity:1" offset="0"/><stop id="stop3814" style="stop-color:#999;stop-opacity:1" offset="1"/></radialGradient><linearGradient id="linearGradient3818" x1="165.749" x2="674.013" y1="57.312" y2="57.312" gradientTransform="translate(-153.08409,-173.48831)" gradientUnits="userSpaceOnUse" xlink:href="#a-8"/><linearGradient id="linearGradient3792-0" x1="165.749" x2="674.013" y1="57.312" y2="57.312" gradientUnits="userSpaceOnUse" xlink:href="#a-1"/><radialGradient id="a-1" cx="134.066" cy="79.789" r="40.121" fx="134.066" fy="79.789" gradientUnits="userSpaceOnUse"><stop id="stop5-0" style="stop-color:#fff;stop-opacity:1" offset="0"/><stop id="stop7-2" style="stop-color:#999;stop-opacity:1" offset="1"/></radialGradient><linearGradient id="linearGradient3861" x1="165.749" x2="674.013" y1="57.312" y2="57.312" gradientUnits="userSpaceOnUse" xlink:href="#a-1"/><radialGradient id="radialGradient3863" cx="134.066" cy="79.789" r="40.121" fx="134.066" fy="79.789" gradientUnits="userSpaceOnUse"><stop id="stop3865" style="stop-color:#fff;stop-opacity:1" offset="0"/><stop id="stop3867" style="stop-color:#999;stop-opacity:1" offset="1"/></radialGradient><linearGradient id="linearGradient3871" x1="165.749" x2="674.013" y1="57.312" y2="57.312" gradientTransform="translate(0.378418,-0.44196145)" gradientUnits="userSpaceOnUse" xlink:href="#a-1"/></defs><radialGradient id="a" cx="134.066" cy="79.789" r="40.121" fx="134.066" fy="79.789" gradientUnits="userSpaceOnUse"><stop id="stop5" style="stop-color:#fff;stop-opacity:1" offset="0"/><stop id="stop7" style="stop-color:#999;stop-opacity:1" offset="1"/></radialGradient><radialGradient id="b" cx="134.066" cy="79.789" r="40.121" fx="134.066" fy="79.789" gradientUnits="userSpaceOnUse" xlink:href="#a"/><radialGradient id="c" cx="119.382" cy="64.971" r="39.561" fx="119.382" fy="64.971" gradientUnits="userSpaceOnUse" xlink:href="#a"/><radialGradient id="d" cx="103.3" cy="92.341" r="3.105" gradientUnits="userSpaceOnUse"><stop id="stop12" style="stop-color:#999;stop-opacity:1" offset="0"/><stop id="stop14" style="stop-color:#e5e5e5;stop-opacity:1" offset="1"/></radialGradient><linearGradient id="e"><stop id="stop17" style="stop-color:#083c99;stop-opacity:1" offset="0"/><stop id="stop19" style="stop-color:#2f6299;stop-opacity:1" offset="1"/></linearGradient><linearGradient id="f" x1="77.734" x2="115.106" y1="128.454" y2="128.454" gradientTransform="matrix(0.9999964,0,0,1,-39.981171,-27.394473)" gradientUnits="userSpaceOnUse" xlink:href="#e"/><linearGradient id="g" x1="40.181" x2="97.171" y1="90.813" y2="90.813" gradientTransform="matrix(0.9999964,0,0,1,-39.981171,-27.394473)" gradientUnits="userSpaceOnUse" xlink:href="#e"/><text id="text37-5" x="160.948" y="93.334" transform="scale(0.95126779,1.0512287)" style="font-size:96px;font-style:normal;font-variant:normal;font-weight:600;font-stretch:normal;text-align:start;line-height:125%;letter-spacing:0;word-spacing:0;writing-mode:lr-tb;text-anchor:start;fill:#9f9f9f;fill-opacity:.6206896;fill-rule:evenodd;stroke:none;font-family:FreeSans,Arial,Bitstream Vera Sans,DejaVu Sans,Open Sans,sans-serif"><tspan id="tspan3006-1" x="160.948" y="93.334" style="font-size:96px;font-style:normal;font-variant:normal;font-weight:600;font-stretch:normal;text-align:start;line-height:125%;writing-mode:lr-tb;text-anchor:start;fill:#9f9f9f;fill-opacity:.6206896;stroke:none;font-family:FreeSans,Arial,Bitstream Vera Sans,DejaVu Sans,Open Sans,sans-serif">FINAL CUT</tspan></text><g id="g23" style="stroke:#000;stroke-width:.70560098"><path id="path25" d="M 95.5723,89.7399 93.9452,97.038 H 118.342 L 174.188,62.5394 z" transform="matrix(0.9999964,0,0,1,-39.981171,-27.394473)" style="fill:url(#b)"/><path id="path27" d="M 104.606,101.878 96.9965,101.87 100.11,78.8019 141.768,28.0721 z" transform="matrix(0.9999964,0,0,1,-39.981171,-27.394473)" style="fill:url(#c)"/><ellipse id="ellipse29" cx="103.3" cy="92.341" rx="2.99" ry="2.668" transform="matrix(0.9999964,0,0,1,-39.981171,-27.394473)" style="fill:url(#d)"/></g><path id="path31" d="m 60.834469,63.461025 5.106975,2.766903" style="fill:none;stroke:#4c4c4c;stroke-width:.70560002"/><path id="path33" d="m 41.238437,64.506627 c 1.583494,-3.7593 1.591294,-7.5783 0.0293,-10.9127 -3.627087,-7.7428 -15.768544,-9.6018 -26.687804,-4.2024 -10.9190611,5.3995 -16.6457405,15.9966 -12.8611541,23.7591 7.9326714,16.2694 39.2906581,1.0822 52.2337121,-2.4313 l 2.884289,-14.7432 z m -14.566648,7.0191 c 6.957675,-3.4406 10.627362,-10.22 8.195071,-15.1393 -2.432692,-4.9192 -10.047764,-6.1183 -17.005539,-2.6778 -6.957675,3.4406 -10.627562,10.2201 -8.1950707,15.1393 2.4324917,4.9192 10.0476637,6.1184 17.0055387,2.6778 z" style="fill:url(#g);stroke:#000;stroke-width:.70599997"/><path id="path35" d="m 59.194672,88.146527 c 3.994486,-0.8275 7.743772,-0.0976 10.713361,2.0792 6.896176,5.0533 6.375277,17.325803 -1.031496,26.996603 -7.406973,9.6701 -18.910132,13.2424 -25.795507,8.0296 -14.430948,-10.9256 6.526776,-38.760103 12.474055,-50.780803 l 15.022946,0.018 z m -9.699765,12.935803 c 4.719283,-6.161803 12.079956,-8.453703 16.436541,-5.116503 4.356784,3.3375 4.062385,11.041103 -0.656898,17.203203 -4.720483,6.1614 -12.080556,8.4532 -16.437241,5.1162 -4.356884,-3.3365 -4.062285,-11.0407 0.657598,-17.2029 z" style="fill:url(#f);stroke:#000;stroke-width:.70560002"/><text id="text37" x="158.569" y="91.776" transform="scale(0.95126779,1.0512287)" style="font-size:96px;font-style:normal;font-variant:normal;font-weight:600;font-stretch:normal;text-align:start;line-height:125%;letter-spacing:0;word-spacing:0;writing-mode:lr-tb;text-anchor:start;fill:#083c99;fill-opacity:.88747732;fill-rule:evenodd;stroke:none;font-family:FreeSans,Arial,Bitstream Vera Sans,DejaVu Sans,Open Sans,sans-serif"><tspan id="tspan3006" x="158.569" y="91.776" style="font-size:96px;font-style:normal;font-variant:normal;font-weight:600;font-stretch:normal;text-align:start;line-height:125%;writing-mode:lr-tb;text-anchor:start;fill:#083c99;fill-opacity:.88747732;stroke:none;font-family:FreeSans,Arial,Bitstream Vera Sans,DejaVu Sans,Open Sans,sans-serif">FINAL CUT</tspan></text></svg>